<?xml version="1.0" encoding="utf-8"?>
<!-- Generator: Adobe Illustrator 15.0.0, SVG Export Plug-In  -->
<!DOCTYPE svg PUBLIC "-//W3C//DTD SVG 1.1//EN" "http://www.w3.org/Graphics/SVG/1.1/DTD/svg11.dtd" [
	<!ENTITY ns_flows "http://ns.adobe.com/Flows/1.0/">
]>
<svg version="1.1"
	 xmlns="http://www.w3.org/2000/svg" xmlns:xlink="http://www.w3.org/1999/xlink" xmlns:a="http://ns.adobe.com/AdobeSVGViewerExtensions/3.0/"
	 x="0px" y="0px" width="612px" height="341px" viewBox="0 0 612 341" overflow="visible" enable-background="new 0 0 612 341"
	 xml:space="preserve">
<defs>
</defs>
<path display="none" fill="#F1F2F2" d="M213.511,53.263c-15.217-15.217-35.45-23.598-56.971-23.598
	c-21.52,0-41.752,8.381-56.97,23.598C84.354,68.48,75.973,88.712,75.973,110.232c0,5.981,0.65,11.862,1.911,17.564
	c2.099,9.487,5.9,18.475,11.247,26.6c3.002,4.562,6.488,8.854,10.439,12.805c15.218,15.217,35.45,23.598,56.97,23.598
	c21.521,0,41.754-8.381,56.971-23.598c6.196-6.197,10.996-12.707,14.821-20.315l0.263-0.517c0.682-1.357,1.107-2.245,1.709-3.637
	l0.213-0.489c4.318-9.973,6.592-20.817,6.592-32.011C237.108,88.712,228.728,68.48,213.511,53.263z M227.444,140.649
	c-6.176-2.74-13.137-4.294-19.834-4.294c-12.596,0-24.627,4.594-37.364,9.457c-10.646,4.064-21.654,8.267-33.337,9.766
	c-1.795,0.23-3.596,0.347-5.353,0.347c-14.162,0-26.357-7.799-30.348-19.406c-3.724-10.833,0.684-22.47,11.79-31.129l3.935-3.068
	l-4.894-0.974c-3.544-0.705-6.879-1.063-9.911-1.063c-6.521,0-11.869,1.635-15.896,4.86c-2.692,2.156-4.752,4.985-6.161,8.438
	c-0.048-1.11-0.078-2.227-0.078-3.35c0-42.208,34.338-76.546,76.546-76.546c42.208,0,76.547,34.338,76.547,76.546
	C233.087,120.957,231.444,131.376,227.444,140.649z"/>
<path display="none" fill="#FFFFFF" d="M112.361,101.412l-0.321-0.064c-3.544-0.705-6.879-1.063-9.911-1.063
	c-6.521,0-11.869,1.635-15.896,4.86c-2.692,2.156-4.752,4.985-6.161,8.438c-0.048-1.11-0.078-2.227-0.078-3.35
	c0-42.208,34.338-76.546,76.546-76.546c42.208,0,76.547,34.338,76.547,76.546c0,10.724-1.643,21.144-5.643,30.417
	c-6.176-2.74-13.137-4.294-19.834-4.294c-12.596,0-24.627,4.594-37.364,9.457c-10.646,4.064-21.654,8.267-33.337,9.766
	c-1.795,0.23-3.596,0.347-5.353,0.347c-14.162,0-26.357-7.799-30.348-19.406c-3.724-10.833,0.684-22.47,11.79-31.129l0.292-0.228
	C113.29,105.162,117.88,102.933,112.361,101.412z"/>
<path display="none" fill="#F1F2F2" d="M129.459,128.081c-9.397-7.307-19.365-9.244-30.449,3.207l0,0
	c-3.59,15.408,7.844,31.144,24.507,28.044c-8.308,1.545-13.634-27.323,5.31-28.475C128.828,130.857,133.354,131.109,129.459,128.081
	z"/>
<path display="none" fill="none" stroke="#FFFFFF" stroke-width="3.001" stroke-miterlimit="10" d="M101.529,125.069
	c-2.142,14.286,14.625,27.985,21.284,28.572"/>
<path display="none" fill="none" stroke="#FFFFFF" stroke-width="3.0158" stroke-miterlimit="10" d="M236.955,156.36
	c-32.786-10.635-41.771-4.563-62.592,3.141c-28.826,10.667-76.014,21.018-103.437-11.855"/>
<path display="none" fill="none" stroke="#FFFFFF" stroke-width="3.0158" stroke-miterlimit="10" d="M236.955,172.322
	c-32.786-10.635-41.771-4.563-62.592,3.14c-28.826,10.667-62.201,15.092-90.711,0.689"/>
<circle display="none" fill="none" stroke="#F1F2F2" stroke-width="4.5678" stroke-miterlimit="10" cx="154.951" cy="82.971" r="20.779"/>
<path display="none" fill="#F1F2F2" d="M156.783,54.087c0,0.913-0.742,1.654-1.655,1.654l0,0c-0.913,0-1.654-0.741-1.654-1.654
	V42.378c0-0.914,0.741-1.654,1.654-1.654l0,0c0.913,0,1.655,0.74,1.655,1.654V54.087z"/>
<path display="none" fill="#F1F2F2" d="M156.783,123.416c0,0.914-0.742,1.654-1.655,1.654l0,0c-0.913,0-1.654-0.74-1.654-1.654
	v-11.709c0-0.914,0.741-1.655,1.654-1.655l0,0c0.913,0,1.655,0.741,1.655,1.655V123.416z"/>
<path display="none" fill="#F1F2F2" d="M185.051,110.171c0.646,0.646,0.646,1.695,0,2.34l0,0c-0.646,0.646-1.693,0.646-2.339,0
	l-8.28-8.28c-0.646-0.645-0.646-1.693,0-2.339l0,0c0.646-0.647,1.693-0.647,2.34,0L185.051,110.171z"/>
<path display="none" fill="#F1F2F2" d="M136.807,60.388c0.646,0.646,0.646,1.694,0,2.34l0,0c-0.647,0.646-1.694,0.646-2.34,0
	l-8.28-8.279c-0.646-0.647-0.646-1.694,0-2.341l0,0c0.646-0.645,1.694-0.645,2.34,0L136.807,60.388z"/>
<path display="none" fill="#F1F2F2" d="M177.113,64.407c-0.646,0.646-1.693,0.646-2.34,0l0,0c-0.646-0.646-0.646-1.694,0-2.34
	l8.278-8.279c0.646-0.646,1.695-0.647,2.34,0l0,0c0.646,0.646,0.646,1.694,0,2.34L177.113,64.407z"/>
<path display="none" fill="#F1F2F2" d="M126.599,111.654c-0.646,0.646-1.694,0.646-2.34,0l0,0c-0.646-0.646-0.646-1.693,0-2.339
	l8.28-8.279c0.646-0.646,1.693-0.646,2.34,0l0,0c0.646,0.646,0.646,1.695,0,2.34L126.599,111.654z"/>
<path display="none" fill="#F1F2F2" d="M184.069,84.633c-0.913,0-1.654-0.741-1.654-1.654l0,0c0-0.915,0.741-1.655,1.654-1.655
	h11.709c0.914,0,1.654,0.741,1.654,1.655l0,0c0,0.914-0.74,1.654-1.654,1.654H184.069z"/>
<path display="none" fill="#F1F2F2" d="M114.645,84.633c-0.913,0-1.654-0.741-1.654-1.654l0,0c0-0.915,0.741-1.655,1.654-1.655
	h11.708c0.914,0,1.655,0.741,1.655,1.655l0,0c0,0.914-0.741,1.654-1.655,1.654H114.645z"/>
<line display="none" fill="none" stroke="#F1F2F2" stroke-width="3.9014" stroke-linecap="round" stroke-miterlimit="10" x1="218.446" y1="84.916" x2="218.446" y2="140.606"/>
<line display="none" fill="none" stroke="#F1F2F2" stroke-width="3.9014" stroke-linecap="round" stroke-miterlimit="10" x1="218.446" y1="84.916" x2="227.726" y2="99.28"/>
<line display="none" fill="none" stroke="#F1F2F2" stroke-width="3.9014" stroke-linecap="round" stroke-miterlimit="10" x1="218.446" y1="84.916" x2="208.94" y2="99.631"/>
<line display="none" fill="none" stroke="#F1F2F2" stroke-width="3.9014" stroke-linecap="round" stroke-miterlimit="10" x1="218.446" y1="103.708" x2="226.579" y2="116.297"/>
<line display="none" fill="none" stroke="#F1F2F2" stroke-width="3.9014" stroke-linecap="round" stroke-miterlimit="10" x1="218.446" y1="104.391" x2="210.446" y2="116.777"/>
<line display="none" fill="none" stroke="#F1F2F2" stroke-width="3.9014" stroke-linecap="round" stroke-miterlimit="10" x1="198.233" y1="102.317" x2="198.233" y2="145.389"/>
<line display="none" fill="none" stroke="#F1F2F2" stroke-width="3.9014" stroke-linecap="round" stroke-miterlimit="10" x1="198.233" y1="102.317" x2="205.409" y2="113.426"/>
<line display="none" fill="none" stroke="#F1F2F2" stroke-width="3.9014" stroke-linecap="round" stroke-miterlimit="10" x1="198.233" y1="102.317" x2="190.882" y2="113.698"/>
<line display="none" fill="none" stroke="#F1F2F2" stroke-width="3.9014" stroke-linecap="round" stroke-miterlimit="10" x1="198.233" y1="116.85" x2="204.522" y2="126.587"/>
<line display="none" fill="none" stroke="#F1F2F2" stroke-width="3.9014" stroke-linecap="round" stroke-miterlimit="10" x1="198.233" y1="117.379" x2="192.046" y2="126.958"/>
<circle display="none" fill="none" stroke="#F1F2F2" stroke-width="5.4019" stroke-miterlimit="10" cx="155.341" cy="111.624" r="81.163"/>
<path display="none" fill="#F1F2F2" d="M521.227,347.803c-15.217-15.218-35.45-23.599-56.971-23.599
	c-21.52,0-41.752,8.381-56.97,23.599c-15.217,15.217-23.598,35.449-23.598,56.969c0,5.981,0.65,11.862,1.912,17.564
	c2.099,9.486,5.9,18.475,11.246,26.6c3.003,4.562,6.488,8.854,10.439,12.805c15.218,15.217,35.45,23.598,56.97,23.598
	c21.521,0,41.754-8.381,56.971-23.598c6.196-6.196,10.996-12.707,14.821-20.314l0.263-0.518c0.682-1.357,1.107-2.245,1.709-3.637
	l0.213-0.489c4.318-9.973,6.592-20.817,6.592-32.011C544.824,383.252,536.443,363.02,521.227,347.803z M535.16,435.188
	c-6.176-2.74-13.137-4.294-19.834-4.294c-12.596,0-24.627,4.594-37.364,9.457c-10.646,4.064-21.654,8.267-33.337,9.766
	c-1.796,0.23-3.596,0.348-5.353,0.348c-14.162,0-26.357-7.799-30.348-19.406c-3.725-10.832,0.684-22.471,11.789-31.129l3.936-3.068
	l-4.894-0.975c-3.544-0.705-6.88-1.062-9.911-1.062c-6.521,0-11.869,1.635-15.896,4.859c-2.691,2.156-4.752,4.985-6.16,8.438
	c-0.049-1.11-0.078-2.227-0.078-3.35c0-42.208,34.338-76.547,76.546-76.547s76.547,34.339,76.547,76.547
	C540.803,415.496,539.16,425.915,535.16,435.188z"/>
<path display="none" fill="#CFE9DB" d="M420.077,395.951l-0.321-0.064c-3.544-0.705-6.88-1.062-9.911-1.062
	c-6.521,0-11.869,1.635-15.896,4.859c-2.691,2.156-4.752,4.985-6.16,8.438c-0.049-1.11-0.078-2.227-0.078-3.35
	c0-42.208,34.338-76.547,76.546-76.547s76.547,34.339,76.547,76.547c0,10.725-1.643,21.144-5.643,30.417
	c-6.176-2.74-13.137-4.294-19.834-4.294c-12.596,0-24.627,4.594-37.364,9.457c-10.646,4.064-21.654,8.267-33.337,9.766
	c-1.796,0.23-3.596,0.348-5.353,0.348c-14.162,0-26.357-7.799-30.348-19.406c-3.725-10.832,0.684-22.471,11.789-31.129l0.292-0.229
	C421.006,399.701,425.597,397.473,420.077,395.951z"/>
<path display="none" fill="#F1F2F2" d="M464.499,348.627c0,0.912-0.742,1.653-1.655,1.653l0,0c-0.913,0-1.654-0.741-1.654-1.653
	v-11.71c0-0.914,0.741-1.654,1.654-1.654l0,0c0.913,0,1.655,0.74,1.655,1.654V348.627z"/>
<circle display="none" fill="none" stroke="#F1F2F2" stroke-width="5.4019" stroke-miterlimit="10" cx="463.057" cy="406.163" r="81.163"/>
<path display="none" fill="#F1F2F2" d="M521.227,76.902c-15.217-15.218-35.45-23.599-56.971-23.599
	c-21.52,0-41.752,8.381-56.97,23.599c-15.217,15.217-23.598,35.449-23.598,56.969c0,5.981,0.65,11.862,1.912,17.564
	c2.099,9.486,5.9,18.475,11.246,26.6c3.003,4.562,6.488,8.854,10.439,12.805c15.218,15.217,35.45,23.598,56.97,23.598
	c21.521,0,41.754-8.381,56.971-23.598c6.196-6.196,10.996-12.707,14.821-20.314l0.263-0.518c0.682-1.357,1.107-2.245,1.709-3.637
	l0.213-0.489c4.318-9.973,6.592-20.817,6.592-32.011C544.824,112.352,536.443,92.119,521.227,76.902z M535.16,164.288
	c-6.176-2.74-13.137-4.294-19.834-4.294c-12.596,0-24.627,4.594-37.364,9.457c-10.646,4.064-21.654,8.267-33.337,9.766
	c-1.796,0.23-3.596,0.348-5.353,0.348c-14.162,0-26.357-7.799-30.348-19.406c-3.725-10.832,0.684-22.471,11.789-31.129l3.936-3.068
	l-4.894-0.975c-3.544-0.705-6.88-1.062-9.911-1.062c-6.521,0-11.869,1.635-15.896,4.859c-2.691,2.156-4.752,4.985-6.16,8.438
	c-0.049-1.11-0.078-2.227-0.078-3.35c0-42.208,34.338-76.547,76.546-76.547s76.547,34.339,76.547,76.547
	C540.803,144.596,539.16,155.015,535.16,164.288z"/>
<path display="none" fill="#FFFFFF" d="M420.077,125.051l-0.321-0.064c-3.544-0.705-6.88-1.062-9.911-1.062
	c-6.521,0-11.869,1.635-15.896,4.859c-2.691,2.156-4.752,4.985-6.16,8.438c-0.049-1.11-0.078-2.227-0.078-3.35
	c0-42.208,34.338-76.547,76.546-76.547s76.547,34.339,76.547,76.547c0,10.725-1.643,21.144-5.643,30.417
	c-6.176-2.74-13.137-4.294-19.834-4.294c-12.596,0-24.627,4.594-37.364,9.457c-10.646,4.064-21.654,8.267-33.337,9.766
	c-1.796,0.23-3.596,0.348-5.353,0.348c-14.162,0-26.357-7.799-30.348-19.406c-3.725-10.832,0.684-22.471,11.789-31.129l0.292-0.229
	C421.006,128.801,425.597,126.572,420.077,125.051z"/>
<path display="none" fill="#F1F2F2" d="M437.175,151.72c-9.396-7.308-19.365-9.244-30.449,3.206l0,0
	c-3.59,15.408,7.845,31.145,24.508,28.045c-8.309,1.545-13.635-27.323,5.311-28.475C436.544,154.496,441.069,154.748,437.175,151.72
	z"/>
<path display="none" fill="none" stroke="#FFFFFF" stroke-width="3.001" stroke-miterlimit="10" d="M409.245,148.708
	c-2.143,14.286,14.625,27.985,21.283,28.571"/>
<path display="none" fill="none" stroke="#FFFFFF" stroke-width="3.0158" stroke-miterlimit="10" d="M544.671,179.999
	c-32.786-10.635-41.771-4.563-62.592,3.141c-28.826,10.667-76.014,21.019-103.438-11.855"/>
<path display="none" fill="none" stroke="#FFFFFF" stroke-width="3.0158" stroke-miterlimit="10" d="M544.671,195.961
	c-32.786-10.635-41.771-4.563-62.592,3.14c-28.826,10.667-62.201,15.093-90.711,0.689"/>
<circle display="none" fill="none" stroke="#F1F2F2" stroke-width="4.5678" stroke-miterlimit="10" cx="462.667" cy="106.609" r="20.779"/>
<path display="none" fill="#F1F2F2" d="M464.499,77.727c0,0.912-0.742,1.653-1.655,1.653l0,0c-0.913,0-1.654-0.741-1.654-1.653
	v-11.71c0-0.914,0.741-1.654,1.654-1.654l0,0c0.913,0,1.655,0.74,1.655,1.654V77.727z"/>
<path display="none" fill="#F1F2F2" d="M464.499,147.055c0,0.913-0.742,1.653-1.655,1.653l0,0c-0.913,0-1.654-0.74-1.654-1.653
	v-11.709c0-0.914,0.741-1.655,1.654-1.655l0,0c0.913,0,1.655,0.741,1.655,1.655V147.055z"/>
<path display="none" fill="#F1F2F2" d="M492.767,133.811c0.646,0.646,0.646,1.694,0,2.34l0,0c-0.646,0.646-1.693,0.646-2.339,0
	l-8.28-8.279c-0.646-0.645-0.646-1.693,0-2.34l0,0c0.646-0.646,1.693-0.646,2.34,0L492.767,133.811z"/>
<path display="none" fill="#F1F2F2" d="M444.522,84.027c0.646,0.646,0.646,1.693,0,2.34l0,0c-0.646,0.646-1.693,0.646-2.34,0
	l-8.279-8.279c-0.646-0.646-0.646-1.694,0-2.341l0,0c0.646-0.645,1.693-0.645,2.34,0L444.522,84.027z"/>
<path display="none" fill="#F1F2F2" d="M484.829,88.046c-0.646,0.646-1.693,0.646-2.34,0l0,0c-0.646-0.646-0.646-1.694,0-2.34
	l8.278-8.278c0.646-0.646,1.695-0.647,2.34,0l0,0c0.646,0.645,0.646,1.693,0,2.34L484.829,88.046z"/>
<path display="none" fill="#F1F2F2" d="M434.315,135.293c-0.646,0.646-1.695,0.646-2.341,0l0,0c-0.646-0.646-0.646-1.693,0-2.34
	l8.28-8.279c0.646-0.646,1.693-0.646,2.34,0l0,0c0.646,0.646,0.646,1.694,0,2.34L434.315,135.293z"/>
<path display="none" fill="#F1F2F2" d="M491.785,108.271c-0.913,0-1.654-0.74-1.654-1.654l0,0c0-0.914,0.741-1.654,1.654-1.654
	h11.709c0.914,0,1.654,0.74,1.654,1.654l0,0c0,0.914-0.74,1.654-1.654,1.654H491.785z"/>
<path display="none" fill="#F1F2F2" d="M422.36,108.271c-0.912,0-1.654-0.74-1.654-1.654l0,0c0-0.914,0.742-1.654,1.654-1.654
	h11.709c0.914,0,1.654,0.74,1.654,1.654l0,0c0,0.914-0.74,1.654-1.654,1.654H422.36z"/>
<line display="none" fill="none" stroke="#F1F2F2" stroke-width="3.9014" stroke-linecap="round" stroke-miterlimit="10" x1="526.162" y1="108.555" x2="526.162" y2="164.245"/>
<line display="none" fill="none" stroke="#F1F2F2" stroke-width="3.9014" stroke-linecap="round" stroke-miterlimit="10" x1="526.162" y1="108.555" x2="535.441" y2="122.918"/>
<line display="none" fill="none" stroke="#F1F2F2" stroke-width="3.9014" stroke-linecap="round" stroke-miterlimit="10" x1="526.162" y1="108.555" x2="516.656" y2="123.27"/>
<line display="none" fill="none" stroke="#F1F2F2" stroke-width="3.9014" stroke-linecap="round" stroke-miterlimit="10" x1="526.162" y1="127.346" x2="534.295" y2="139.936"/>
<line display="none" fill="none" stroke="#F1F2F2" stroke-width="3.9014" stroke-linecap="round" stroke-miterlimit="10" x1="526.162" y1="128.029" x2="518.162" y2="140.416"/>
<line display="none" fill="none" stroke="#F1F2F2" stroke-width="3.9014" stroke-linecap="round" stroke-miterlimit="10" x1="505.949" y1="125.955" x2="505.949" y2="169.027"/>
<line display="none" fill="none" stroke="#F1F2F2" stroke-width="3.9014" stroke-linecap="round" stroke-miterlimit="10" x1="505.949" y1="125.955" x2="513.125" y2="137.064"/>
<line display="none" fill="none" stroke="#F1F2F2" stroke-width="3.9014" stroke-linecap="round" stroke-miterlimit="10" x1="505.949" y1="125.955" x2="498.598" y2="137.336"/>
<line display="none" fill="none" stroke="#F1F2F2" stroke-width="3.9014" stroke-linecap="round" stroke-miterlimit="10" x1="505.949" y1="140.488" x2="512.238" y2="150.226"/>
<line display="none" fill="none" stroke="#F1F2F2" stroke-width="3.9014" stroke-linecap="round" stroke-miterlimit="10" x1="505.949" y1="141.018" x2="499.762" y2="150.598"/>
<circle display="none" fill="none" stroke="#F1F2F2" stroke-width="5.4019" stroke-miterlimit="10" cx="463.057" cy="135.263" r="81.163"/>
<path display="none" fill="#39C0C4" d="M208.747,342.731c-15.217-15.217-35.45-23.598-56.971-23.598
	c-21.52,0-41.752,8.381-56.971,23.598c-15.217,15.217-23.597,35.449-23.597,56.97c0,5.981,0.649,11.862,1.911,17.564
	c2.1,9.487,5.9,18.476,11.247,26.6c3.003,4.562,6.487,8.854,10.438,12.806c15.219,15.217,35.451,23.598,56.971,23.598
	c21.521,0,41.754-8.381,56.971-23.598c6.195-6.197,10.996-12.707,14.82-20.316l0.264-0.517c0.682-1.357,1.106-2.245,1.709-3.638
	l0.213-0.488c4.318-9.973,6.591-20.816,6.591-32.011C232.344,378.181,223.964,357.948,208.747,342.731z M222.681,430.118
	c-6.176-2.74-13.137-4.294-19.835-4.294c-12.596,0-24.627,4.594-37.364,9.456c-10.646,4.064-21.654,8.268-33.336,9.767
	c-1.796,0.23-3.596,0.347-5.354,0.347c-14.161,0-26.357-7.799-30.348-19.405c-3.724-10.833,0.684-22.47,11.79-31.13l3.935-3.068
	l-4.893-0.974c-3.545-0.705-6.88-1.063-9.911-1.063c-6.521,0-11.869,1.635-15.896,4.86c-2.692,2.155-4.753,4.985-6.161,8.438
	c-0.049-1.11-0.078-2.227-0.078-3.35c0-42.208,34.339-76.546,76.547-76.546c42.207,0,76.546,34.338,76.546,76.546
	C228.322,410.425,226.681,420.845,222.681,430.118z"/>
<path display="none" fill="#9BD4BA" d="M107.597,390.881l-0.32-0.064c-3.545-0.705-6.88-1.063-9.911-1.063
	c-6.521,0-11.869,1.635-15.896,4.86c-2.692,2.155-4.753,4.985-6.161,8.438c-0.049-1.11-0.078-2.227-0.078-3.35
	c0-42.208,34.339-76.546,76.547-76.546c42.207,0,76.546,34.338,76.546,76.546c0,10.724-1.642,21.144-5.642,30.417
	c-6.176-2.74-13.137-4.294-19.835-4.294c-12.596,0-24.627,4.594-37.364,9.456c-10.646,4.064-21.654,8.268-33.336,9.767
	c-1.796,0.23-3.596,0.347-5.354,0.347c-14.161,0-26.357-7.799-30.348-19.405c-3.724-10.833,0.684-22.47,11.79-31.13l0.292-0.228
	C108.526,394.631,113.116,392.401,107.597,390.881z"/>
<path display="none" fill="#39C0C4" d="M152.019,343.556c0,0.914-0.742,1.654-1.654,1.654l0,0c-0.914,0-1.654-0.74-1.654-1.654
	v-11.709c0-0.914,0.74-1.654,1.654-1.654l0,0c0.912,0,1.654,0.74,1.654,1.654V343.556z"/>
<circle display="none" fill="none" stroke="#39C0C4" stroke-width="5.4019" stroke-miterlimit="10" cx="150.576" cy="401.093" r="81.163"/>
<rect x="327.145" y="225.879" display="none" fill="none" width="282.201" height="47.697"/>
<text transform="matrix(1 0 0 1 327.1445 255.1621)" display="none" fill="#F1F2F2" font-family="'WaywardSans-Regular'" font-size="36">Sunset Space</text>
<path display="none" fill="#F1F2F2" d="M413.725,66.198C382.53,35.002,341.05,17.821,296.933,17.821
	c-44.116,0-85.593,17.182-116.79,48.377c-31.195,31.195-48.376,72.673-48.376,116.788c0,12.262,1.333,24.318,3.919,36.008
	c4.303,19.447,12.097,37.874,23.055,54.529c6.157,9.354,13.302,18.152,21.401,26.25c31.197,31.196,72.674,48.376,116.79,48.376
	c44.117,0,85.598-17.18,116.792-48.376c12.701-12.701,22.542-26.049,30.385-41.645l0.538-1.061c1.396-2.784,2.27-4.604,3.503-7.456
	l0.437-1.003c8.853-20.444,13.514-42.676,13.514-65.623C462.101,138.871,444.919,97.394,413.725,66.198z M442.289,245.343
	c-12.662-5.618-26.933-8.803-40.662-8.803c-25.82,0-50.484,9.417-76.597,19.386c-21.827,8.333-44.392,16.948-68.341,20.02
	c-3.682,0.473-7.373,0.712-10.974,0.712c-29.032,0-54.034-15.987-62.213-39.783c-7.636-22.205,1.401-46.065,24.167-63.814
	l8.068-6.29l-10.032-1.998c-7.266-1.446-14.104-2.178-20.318-2.178c-13.367,0-24.332,3.351-32.588,9.961
	c-5.518,4.42-9.742,10.22-12.628,17.297c-0.101-2.277-0.161-4.565-0.161-6.867c0-86.527,70.393-156.923,156.921-156.923
	s156.924,70.396,156.924,156.923C453.856,204.972,450.487,226.331,442.289,245.343z"/>
<path display="none" fill="#FFFFFF" d="M206.364,164.904l-0.658-0.132c-7.266-1.446-14.104-2.178-20.318-2.178
	c-13.367,0-24.332,3.351-32.588,9.961c-5.518,4.42-9.742,10.22-12.628,17.297c-0.101-2.277-0.161-4.565-0.161-6.867
	c0-86.527,70.393-156.923,156.921-156.923s156.924,70.396,156.924,156.923c0,21.986-3.369,43.344-11.567,62.356
	c-12.662-5.618-26.933-8.803-40.662-8.803c-25.82,0-50.484,9.417-76.597,19.386c-21.827,8.333-44.392,16.948-68.341,20.02
	c-3.682,0.473-7.373,0.712-10.974,0.712c-29.032,0-54.034-15.987-62.213-39.783c-7.636-22.205,1.401-46.065,24.167-63.814
	l0.598-0.468C208.268,172.593,217.68,168.023,206.364,164.904z"/>
<path display="none" fill="#F1F2F2" d="M241.416,219.577c-19.263-14.98-39.7-18.951-62.423,6.572l0,0
	c-7.358,31.587,16.083,63.847,50.242,57.493c-17.032,3.167-27.951-56.013,10.887-58.374
	C240.122,225.268,249.4,225.784,241.416,219.577z"/>
<path display="none" fill="none" stroke="#FFFFFF" stroke-width="6.1522" stroke-miterlimit="10" d="M184.159,213.403
	c-4.393,29.286,29.982,57.371,43.631,58.572"/>
<path display="none" fill="none" stroke="#FFFFFF" stroke-width="6.1824" stroke-miterlimit="10" d="M461.786,277.551
	c-67.213-21.802-85.632-9.356-128.314,6.438c-59.096,21.867-155.832,43.088-212.051-24.305"/>
<path display="none" fill="none" stroke="#FFFFFF" stroke-width="6.1824" stroke-miterlimit="10" d="M461.786,310.272
	c-67.213-21.802-85.632-9.354-128.314,6.438c-59.096,21.866-127.515,30.94-185.961,1.412"/>
<path display="none" fill="none" stroke="#F1F2F2" stroke-width="9.3641" stroke-miterlimit="10" d="M336.273,127.099
	c0,23.527-19.071,42.6-42.596,42.6c-23.529,0-42.601-19.073-42.601-42.6c0-23.525,19.071-42.599,42.601-42.599
	C317.202,84.5,336.273,103.574,336.273,127.099z"/>
<path display="none" fill="#F1F2F2" d="M297.432,67.888c0,1.87-1.522,3.389-3.394,3.389l0,0c-1.872,0-3.391-1.52-3.391-3.389V43.882
	c0-1.874,1.519-3.391,3.391-3.391l0,0c1.872,0,3.394,1.517,3.394,3.391V67.888z"/>
<path display="none" fill="#F1F2F2" d="M297.432,210.014c0,1.872-1.522,3.39-3.394,3.39l0,0c-1.872,0-3.391-1.518-3.391-3.39
	v-24.005c0-1.874,1.519-3.394,3.391-3.394l0,0c1.872,0,3.394,1.52,3.394,3.394V210.014z"/>
<path display="none" fill="#F1F2F2" d="M355.38,182.862c1.324,1.326,1.324,3.474,0,4.797l0,0c-1.324,1.322-3.472,1.322-4.795,0
	l-16.974-16.973c-1.325-1.321-1.325-3.471,0-4.797l0,0c1.325-1.325,3.471-1.325,4.797,0L355.38,182.862z"/>
<path display="none" fill="#F1F2F2" d="M256.478,80.805c1.324,1.324,1.324,3.471,0,4.796l0,0c-1.325,1.326-3.471,1.326-4.796,0
	l-16.973-16.973c-1.325-1.325-1.325-3.473,0-4.799l0,0c1.324-1.321,3.472-1.321,4.797,0L256.478,80.805z"/>
<path display="none" fill="#F1F2F2" d="M339.107,89.044c-1.324,1.323-3.471,1.323-4.796,0l0,0c-1.325-1.324-1.325-3.474,0-4.797
	l16.971-16.972c1.326-1.325,3.477-1.327,4.797,0l0,0c1.325,1.322,1.325,3.472,0,4.797L339.107,89.044z"/>
<path display="none" fill="#F1F2F2" d="M235.553,185.901c-1.325,1.323-3.475,1.323-4.798,0l0,0c-1.324-1.326-1.324-3.472,0-4.797
	l16.974-16.973c1.325-1.325,3.472-1.325,4.797,0l0,0c1.324,1.323,1.324,3.474,0,4.797L235.553,185.901z"/>
<path display="none" fill="#F1F2F2" d="M353.367,130.507c-1.871,0-3.392-1.518-3.392-3.392l0,0c0-1.873,1.521-3.391,3.392-3.391
	h24.004c1.875,0,3.392,1.518,3.392,3.391l0,0c0,1.874-1.517,3.392-3.392,3.392H353.367z"/>
<path display="none" fill="#F1F2F2" d="M211.046,130.507c-1.87,0-3.392-1.518-3.392-3.392l0,0c0-1.873,1.522-3.391,3.392-3.391
	h24.004c1.873,0,3.391,1.518,3.391,3.391l0,0c0,1.874-1.518,3.392-3.391,3.392H211.046z"/>
<line display="none" fill="none" stroke="#F1F2F2" stroke-width="7.9979" stroke-linecap="round" stroke-miterlimit="10" x1="423.843" y1="131.087" x2="423.843" y2="245.254"/>
<line display="none" fill="none" stroke="#F1F2F2" stroke-width="7.9979" stroke-linecap="round" stroke-miterlimit="10" x1="423.843" y1="131.087" x2="442.864" y2="160.533"/>
<line display="none" fill="none" stroke="#F1F2F2" stroke-width="7.9979" stroke-linecap="round" stroke-miterlimit="10" x1="423.843" y1="131.087" x2="404.355" y2="161.253"/>
<line display="none" fill="none" stroke="#F1F2F2" stroke-width="7.9979" stroke-linecap="round" stroke-miterlimit="10" x1="423.843" y1="169.609" x2="440.515" y2="195.418"/>
<line display="none" fill="none" stroke="#F1F2F2" stroke-width="7.9979" stroke-linecap="round" stroke-miterlimit="10" x1="423.843" y1="171.011" x2="407.441" y2="196.404"/>
<line display="none" fill="none" stroke="#F1F2F2" stroke-width="7.9979" stroke-linecap="round" stroke-miterlimit="10" x1="382.405" y1="166.758" x2="382.405" y2="255.058"/>
<line display="none" fill="none" stroke="#F1F2F2" stroke-width="7.9979" stroke-linecap="round" stroke-miterlimit="10" x1="382.405" y1="166.758" x2="397.116" y2="189.533"/>
<line display="none" fill="none" stroke="#F1F2F2" stroke-width="7.9979" stroke-linecap="round" stroke-miterlimit="10" x1="382.405" y1="166.758" x2="367.334" y2="190.089"/>
<line display="none" fill="none" stroke="#F1F2F2" stroke-width="7.9979" stroke-linecap="round" stroke-miterlimit="10" x1="382.405" y1="196.552" x2="395.297" y2="216.513"/>
<line display="none" fill="none" stroke="#F1F2F2" stroke-width="7.9979" stroke-linecap="round" stroke-miterlimit="10" x1="382.405" y1="197.637" x2="369.72" y2="217.276"/>
<circle display="none" fill="none" stroke="#F1F2F2" stroke-width="11.074" stroke-miterlimit="10" cx="294.474" cy="185.839" r="166.386"/>
<rect display="none" fill="#D0C6BA" width="612" height="372.082"/>
<path display="none" fill="#38454C" d="M416.5,62.885c-31.194-31.196-72.675-48.377-116.792-48.377
	c-44.116,0-85.593,17.182-116.79,48.377c-31.195,31.195-48.376,72.673-48.376,116.788c0,12.262,1.333,24.318,3.919,36.008
	c4.303,19.447,12.097,37.874,23.055,54.529c6.157,9.354,13.302,18.152,21.401,26.25c31.197,31.196,72.674,48.375,116.79,48.375
	c44.117,0,85.598-17.18,116.792-48.375c12.701-12.701,22.542-26.049,30.385-41.645l0.538-1.061c1.396-2.784,2.27-4.604,3.503-7.456
	l0.437-1.003c8.853-20.444,13.514-42.676,13.514-65.623C464.876,135.558,447.694,94.081,416.5,62.885z M445.064,242.03
	c-12.662-5.618-26.933-8.803-40.662-8.803c-25.82,0-50.484,9.417-76.597,19.386c-21.827,8.333-44.392,16.948-68.341,20.02
	c-3.682,0.473-7.373,0.712-10.974,0.712c-29.032,0-54.034-15.987-62.213-39.783c-7.636-22.205,1.401-46.065,24.167-63.814
	l8.068-6.29l-10.032-1.998c-7.266-1.446-14.104-2.178-20.318-2.178c-13.367,0-24.332,3.351-32.588,9.961
	c-5.518,4.42-9.742,10.22-12.628,17.297c-0.101-2.277-0.161-4.565-0.161-6.867c0-86.527,70.393-156.923,156.921-156.923
	s156.924,70.396,156.924,156.923C456.632,201.659,453.263,223.018,445.064,242.03z"/>
<path display="none" fill="#E3CCAF" d="M209.14,161.591l-0.658-0.132c-7.266-1.446-14.104-2.178-20.318-2.178
	c-13.367,0-24.332,3.351-32.588,9.961c-5.518,4.42-9.742,10.22-12.628,17.297c-0.101-2.277-0.161-4.565-0.161-6.867
	c0-86.527,70.393-156.923,156.921-156.923s156.924,70.396,156.924,156.923c0,21.986-3.369,43.344-11.567,62.356
	c-12.662-5.618-26.933-8.803-40.662-8.803c-25.82,0-50.484,9.417-76.597,19.386c-21.827,8.333-44.392,16.948-68.341,20.02
	c-3.682,0.473-7.373,0.712-10.974,0.712c-29.032,0-54.034-15.987-62.213-39.783c-7.636-22.205,1.401-46.065,24.167-63.814
	l0.598-0.468C211.043,169.28,220.455,164.71,209.14,161.591z"/>
<path display="none" fill="#38454C" d="M244.191,216.264c-19.263-14.98-39.7-18.951-62.423,6.572l0,0
	c-7.358,31.587,16.083,63.847,50.242,57.493c-17.032,3.167-27.951-56.013,10.887-58.374
	C242.897,221.955,252.175,222.471,244.191,216.264z"/>
<path display="none" fill="none" stroke="#E3CCAF" stroke-width="6.1522" stroke-miterlimit="10" d="M186.934,210.09
	c-4.393,29.286,29.982,57.371,43.631,58.572"/>
<path display="none" fill="none" stroke="#E3CCAF" stroke-width="6.1824" stroke-miterlimit="10" d="M464.562,274.238
	c-67.213-21.802-85.632-9.356-128.314,6.438c-59.097,21.867-155.832,43.087-212.051-24.305"/>
<path display="none" fill="none" stroke="#E3CCAF" stroke-width="6.1824" stroke-miterlimit="10" d="M464.562,306.959
	c-67.213-21.802-85.632-9.354-128.314,6.437c-59.097,21.867-127.515,30.941-185.961,1.412"/>
<path display="none" fill="none" stroke="#C9643A" stroke-width="6" stroke-miterlimit="10" d="M339.049,123.786
	c0,23.527-19.071,42.6-42.596,42.6c-23.529,0-42.601-19.073-42.601-42.6c0-23.525,19.071-42.599,42.601-42.599
	C319.978,81.188,339.049,100.261,339.049,123.786z"/>
<path display="none" fill="#C9643A" d="M300.207,64.575c0,1.87-1.521,3.389-3.394,3.389l0,0c-1.872,0-3.392-1.52-3.392-3.389V40.569
	c0-1.874,1.52-3.391,3.392-3.391l0,0c1.872,0,3.394,1.517,3.394,3.391V64.575z"/>
<path display="none" fill="#C9643A" d="M300.207,206.701c0,1.872-1.521,3.39-3.394,3.39l0,0c-1.872,0-3.392-1.518-3.392-3.39
	v-24.005c0-1.874,1.52-3.394,3.392-3.394l0,0c1.872,0,3.394,1.52,3.394,3.394V206.701z"/>
<path display="none" fill="#C9643A" d="M358.155,179.549c1.324,1.326,1.324,3.474,0,4.797l0,0c-1.324,1.322-3.472,1.322-4.795,0
	l-16.974-16.973c-1.325-1.321-1.325-3.471,0-4.797l0,0c1.325-1.325,3.471-1.325,4.797,0L358.155,179.549z"/>
<path display="none" fill="#C9643A" d="M259.253,77.492c1.324,1.324,1.324,3.471,0,4.796l0,0c-1.325,1.326-3.471,1.326-4.796,0
	l-16.973-16.973c-1.325-1.325-1.325-3.473,0-4.799l0,0c1.324-1.321,3.472-1.321,4.797,0L259.253,77.492z"/>
<path display="none" fill="#C9643A" d="M341.883,85.731c-1.324,1.323-3.471,1.323-4.796,0l0,0c-1.325-1.324-1.325-3.474,0-4.797
	l16.971-16.972c1.326-1.325,3.477-1.327,4.797,0l0,0c1.325,1.322,1.325,3.472,0,4.797L341.883,85.731z"/>
<path display="none" fill="#C9643A" d="M238.329,182.588c-1.325,1.323-3.475,1.323-4.798,0l0,0c-1.324-1.326-1.324-3.472,0-4.797
	l16.974-16.973c1.325-1.325,3.472-1.325,4.797,0l0,0c1.324,1.323,1.324,3.474,0,4.797L238.329,182.588z"/>
<path display="none" fill="#C9643A" d="M356.143,127.194c-1.871,0-3.392-1.518-3.392-3.392l0,0c0-1.873,1.521-3.391,3.392-3.391
	h24.004c1.875,0,3.392,1.518,3.392,3.391l0,0c0,1.874-1.517,3.392-3.392,3.392H356.143z"/>
<path display="none" fill="#C9643A" d="M213.821,127.194c-1.87,0-3.392-1.518-3.392-3.392l0,0c0-1.873,1.522-3.391,3.392-3.391
	h24.004c1.873,0,3.391,1.518,3.391,3.391l0,0c0,1.874-1.518,3.392-3.391,3.392H213.821z"/>
<line display="none" fill="none" stroke="#38454C" stroke-width="7.9979" stroke-linecap="round" stroke-miterlimit="10" x1="426.618" y1="127.774" x2="426.618" y2="241.941"/>
<line display="none" fill="none" stroke="#38454C" stroke-width="7.9979" stroke-linecap="round" stroke-miterlimit="10" x1="426.618" y1="127.774" x2="445.64" y2="157.22"/>
<line display="none" fill="none" stroke="#38454C" stroke-width="7.9979" stroke-linecap="round" stroke-miterlimit="10" x1="426.618" y1="127.774" x2="407.131" y2="157.94"/>
<line display="none" fill="none" stroke="#38454C" stroke-width="7.9979" stroke-linecap="round" stroke-miterlimit="10" x1="426.618" y1="166.296" x2="443.29" y2="192.105"/>
<line display="none" fill="none" stroke="#38454C" stroke-width="7.9979" stroke-linecap="round" stroke-miterlimit="10" x1="426.618" y1="167.698" x2="410.217" y2="193.091"/>
<line display="none" fill="none" stroke="#38454C" stroke-width="7.9979" stroke-linecap="round" stroke-miterlimit="10" x1="385.181" y1="163.445" x2="385.181" y2="251.745"/>
<line display="none" fill="none" stroke="#38454C" stroke-width="7.9979" stroke-linecap="round" stroke-miterlimit="10" x1="385.181" y1="163.445" x2="399.892" y2="186.22"/>
<line display="none" fill="none" stroke="#38454C" stroke-width="7.9979" stroke-linecap="round" stroke-miterlimit="10" x1="385.181" y1="163.445" x2="370.109" y2="186.776"/>
<line display="none" fill="none" stroke="#38454C" stroke-width="7.9979" stroke-linecap="round" stroke-miterlimit="10" x1="385.181" y1="193.239" x2="398.072" y2="213.2"/>
<line display="none" fill="none" stroke="#38454C" stroke-width="7.9979" stroke-linecap="round" stroke-miterlimit="10" x1="385.181" y1="194.324" x2="372.495" y2="213.963"/>
<circle display="none" fill="none" stroke="#38454C" stroke-width="11.074" stroke-miterlimit="10" cx="297.249" cy="182.526" r="166.386"/>
<path display="none" fill="#D0C6BA" d="M420.383,302.603c0,0,8.507-7.397,25.814-35.426c17.305-28.028,24.7,7.324,24.7,7.324
	l-5.101,40.603l-39.126-8.287L420.383,302.603z"/>
<path display="none" fill="#D0C6BA" d="M152.204,276.836c0,0,25.557,40.92,66.159,59.28c40.601,18.365,4.699,4.735,4.699,4.735
	L109.609,316.05l-9.857-65.263l24.732-1.541l15.715,17.95L152.204,276.836z"/>
<rect x="360.582" y="327.793" display="none" fill="#D0C6BA" width="227.421" height="138.267"/>
<path display="none" fill="#38454C" d="M515.354,351.161c-11.592-11.592-27.006-17.977-43.4-17.977
	c-16.394,0-31.806,6.385-43.399,17.977c-11.592,11.593-17.977,27.005-17.977,43.399c0,4.556,0.496,9.036,1.456,13.38
	c1.6,7.227,4.496,14.073,8.568,20.263c2.287,3.477,4.943,6.745,7.952,9.755c11.594,11.592,27.006,17.977,43.399,17.977
	c16.395,0,31.809-6.385,43.4-17.977c4.72-4.719,8.377-9.68,11.291-15.475l0.2-0.395c0.519-1.034,0.843-1.711,1.302-2.771
	l0.162-0.372c3.29-7.597,5.022-15.858,5.022-24.385C533.332,378.166,526.946,362.754,515.354,351.161z M525.97,417.732
	c-4.706-2.089-10.009-3.271-15.11-3.271c-9.595,0-18.761,3.499-28.464,7.203c-8.11,3.097-16.496,6.298-25.396,7.439
	c-1.369,0.176-2.74,0.266-4.077,0.266c-10.789,0-20.079-5.941-23.119-14.784c-2.837-8.252,0.521-17.118,8.98-23.713l2.998-2.338
	l-3.728-0.743c-2.7-0.536-5.241-0.81-7.551-0.81c-4.967,0-9.041,1.246-12.11,3.702c-2.05,1.643-3.619,3.798-4.692,6.428
	c-0.037-0.846-0.059-1.696-0.059-2.551c0-32.153,26.157-58.313,58.312-58.313c32.153,0,58.313,26.16,58.313,58.313
	C530.268,402.729,529.015,410.667,525.97,417.732z"/>
<path display="none" fill="#E3CCAF" d="M438.299,387.841l-0.244-0.05c-2.7-0.536-5.241-0.81-7.551-0.81
	c-4.967,0-9.041,1.246-12.11,3.702c-2.05,1.643-3.619,3.798-4.692,6.428c-0.037-0.846-0.059-1.696-0.059-2.551
	c0-32.153,26.157-58.313,58.312-58.313c32.153,0,58.313,26.16,58.313,58.313c0,8.169-1.253,16.106-4.298,23.172
	c-4.706-2.089-10.009-3.271-15.11-3.271c-9.595,0-18.761,3.499-28.464,7.203c-8.11,3.097-16.496,6.298-25.396,7.439
	c-1.369,0.176-2.74,0.266-4.077,0.266c-10.789,0-20.079-5.941-23.119-14.784c-2.837-8.252,0.521-17.118,8.98-23.713l0.222-0.175
	C439.006,390.697,442.504,388.999,438.299,387.841z"/>
<circle display="none" fill="none" stroke="#38454C" stroke-width="4.1151" stroke-miterlimit="10" cx="471.041" cy="395.62" r="61.83"/>
<rect x="54.418" y="326.854" display="none" fill="#D0C6BA" width="227.421" height="138.267"/>
<path display="none" fill="#38454C" d="M209.19,350.222c-11.592-11.592-27.006-17.977-43.4-17.977
	c-16.394,0-31.806,6.385-43.399,17.977c-11.592,11.593-17.977,27.005-17.977,43.399c0,4.556,0.496,9.036,1.456,13.38
	c1.6,7.227,4.496,14.073,8.568,20.263c2.287,3.477,4.943,6.745,7.952,9.755c11.594,11.592,27.006,17.977,43.399,17.977
	c16.395,0,31.809-6.385,43.4-17.977c4.72-4.719,8.377-9.68,11.291-15.475l0.2-0.395c0.519-1.034,0.843-1.711,1.302-2.771
	l0.162-0.372c3.29-7.597,5.022-15.858,5.022-24.385C227.168,377.227,220.782,361.814,209.19,350.222z M219.806,416.793
	c-4.706-2.089-10.009-3.271-15.11-3.271c-9.595,0-18.761,3.499-28.464,7.203c-8.11,3.097-16.496,6.298-25.396,7.439
	c-1.369,0.176-2.74,0.266-4.077,0.266c-10.789,0-20.079-5.941-23.119-14.784c-2.837-8.252,0.521-17.118,8.98-23.713l2.998-2.338
	l-3.728-0.743c-2.7-0.536-5.241-0.81-7.551-0.81c-4.967,0-9.041,1.246-12.11,3.702c-2.05,1.643-3.619,3.798-4.692,6.428
	c-0.037-0.846-0.059-1.696-0.059-2.551c0-32.153,26.157-58.313,58.312-58.313c32.153,0,58.313,26.16,58.313,58.313
	C224.104,401.79,222.851,409.728,219.806,416.793z"/>
<path display="none" fill="#E3CCAF" d="M132.135,386.901l-0.244-0.05c-2.7-0.536-5.241-0.81-7.551-0.81
	c-4.967,0-9.041,1.246-12.11,3.702c-2.05,1.643-3.619,3.798-4.692,6.428c-0.037-0.846-0.059-1.696-0.059-2.551
	c0-32.153,26.157-58.313,58.312-58.313c32.153,0,58.313,26.16,58.313,58.313c0,8.169-1.253,16.106-4.298,23.172
	c-4.706-2.089-10.009-3.271-15.11-3.271c-9.595,0-18.761,3.499-28.464,7.203c-8.11,3.097-16.496,6.298-25.396,7.439
	c-1.369,0.176-2.74,0.266-4.077,0.266c-10.789,0-20.079-5.941-23.119-14.784c-2.837-8.252,0.521-17.118,8.98-23.713l0.222-0.175
	C132.842,389.758,136.34,388.06,132.135,386.901z"/>
<path display="none" fill="#C9643A" d="M165.976,350.85c0,0.694-0.565,1.26-1.261,1.26l0,0c-0.696,0-1.261-0.565-1.261-1.26v-8.921
	c0-0.695,0.564-1.26,1.261-1.26l0,0c0.695,0,1.261,0.564,1.261,1.26V350.85z"/>
<circle display="none" fill="none" stroke="#38454C" stroke-width="4.1151" stroke-miterlimit="10" cx="164.876" cy="394.681" r="61.83"/>
<rect x="51.75" y="28.907" display="none" fill="#D0C6BA" width="227.421" height="138.267"/>
<rect x="51.75" y="167.174" display="none" fill="#38454C" width="227.421" height="88.064"/>
<path display="none" fill="#38454C" d="M206.522,52.275c-11.592-11.592-27.006-17.977-43.4-17.977
	c-16.394,0-31.806,6.385-43.399,17.977c-11.592,11.593-17.977,27.005-17.977,43.399c0,4.556,0.496,9.036,1.456,13.38
	c1.6,7.227,4.496,14.073,8.568,20.263c2.287,3.477,4.943,6.745,7.952,9.755c11.594,11.592,27.006,17.977,43.399,17.977
	c16.395,0,31.809-6.385,43.4-17.977c4.72-4.719,8.377-9.68,11.291-15.475l0.2-0.395c0.519-1.034,0.843-1.711,1.302-2.771
	l0.162-0.372c3.29-7.597,5.022-15.858,5.022-24.385C224.5,79.28,218.114,63.868,206.522,52.275z M217.137,118.847
	c-4.706-2.089-10.009-3.271-15.11-3.271c-9.595,0-18.761,3.499-28.464,7.203c-8.11,3.097-16.496,6.298-25.396,7.439
	c-1.369,0.176-2.74,0.266-4.077,0.266c-10.789,0-20.079-5.941-23.119-14.784c-2.837-8.252,0.521-17.118,8.98-23.713l2.998-2.338
	l-3.728-0.743c-2.7-0.536-5.241-0.81-7.551-0.81c-4.967,0-9.041,1.246-12.11,3.702c-2.05,1.643-3.619,3.798-4.692,6.428
	c-0.037-0.846-0.059-1.696-0.059-2.551c0-32.153,26.157-58.313,58.312-58.313c32.153,0,58.313,26.16,58.313,58.313
	C221.435,103.844,220.182,111.781,217.137,118.847z"/>
<path display="none" fill="#E3CCAF" d="M129.466,88.955l-0.244-0.05c-2.7-0.536-5.241-0.81-7.551-0.81
	c-4.967,0-9.041,1.246-12.11,3.702c-2.05,1.643-3.619,3.798-4.692,6.428c-0.037-0.846-0.059-1.696-0.059-2.551
	c0-32.153,26.157-58.313,58.312-58.313c32.153,0,58.313,26.16,58.313,58.313c0,8.169-1.253,16.106-4.298,23.172
	c-4.706-2.089-10.009-3.271-15.11-3.271c-9.595,0-18.761,3.499-28.464,7.203c-8.11,3.097-16.496,6.298-25.396,7.439
	c-1.369,0.176-2.74,0.266-4.077,0.266c-10.789,0-20.079-5.941-23.119-14.784c-2.837-8.252,0.521-17.118,8.98-23.713l0.222-0.175
	C130.173,91.812,133.671,90.113,129.466,88.955z"/>
<path display="none" fill="#38454C" d="M142.492,109.271c-7.159-5.567-14.753-7.043-23.196,2.441l0,0
	c-2.734,11.738,5.977,23.727,18.67,21.364c-6.329,1.178-10.387-20.814,4.045-21.691C142.01,111.386,145.458,111.577,142.492,109.271
	z"/>
<path display="none" fill="none" stroke="#E3CCAF" stroke-width="2.2862" stroke-miterlimit="10" d="M121.214,106.978
	c-1.633,10.882,11.143,21.318,16.213,21.766"/>
<path display="none" fill="none" stroke="#E3CCAF" stroke-width="2.2974" stroke-miterlimit="10" d="M224.381,130.814
	c-24.976-8.102-31.821-3.477-47.682,2.393c-21.96,8.126-57.907,16.012-78.798-9.032"/>
<path display="none" fill="none" stroke="#E3CCAF" stroke-width="2.2974" stroke-miterlimit="10" d="M224.381,142.975
	c-24.976-8.103-31.821-3.477-47.682,2.392c-21.96,8.126-47.385,11.498-69.104,0.524"/>
<circle display="none" fill="none" stroke="#C9643A" stroke-width="2.2296" stroke-miterlimit="10" cx="161.911" cy="74.906" r="15.83"/>
<path display="none" fill="#C9643A" d="M163.307,52.903c0,0.694-0.565,1.26-1.261,1.26l0,0c-0.696,0-1.261-0.565-1.261-1.26v-8.921
	c0-0.695,0.564-1.26,1.261-1.26l0,0c0.695,0,1.261,0.564,1.261,1.26V52.903z"/>
<path display="none" fill="#C9643A" d="M163.307,105.718c0,0.695-0.565,1.26-1.261,1.26l0,0c-0.696,0-1.261-0.564-1.261-1.26v-8.921
	c0-0.696,0.564-1.26,1.261-1.26l0,0c0.695,0,1.261,0.563,1.261,1.26V105.718z"/>
<path display="none" fill="#C9643A" d="M184.841,95.628c0.492,0.492,0.492,1.291,0,1.782l0,0c-0.493,0.491-1.29,0.491-1.782,0
	l-6.307-6.307c-0.494-0.491-0.494-1.29,0-1.783l0,0c0.492-0.492,1.289-0.492,1.781,0L184.841,95.628z"/>
<path display="none" fill="#C9643A" d="M148.089,57.703c0.491,0.492,0.491,1.289,0,1.782l0,0c-0.493,0.493-1.291,0.493-1.782,0
	L140,53.179c-0.492-0.493-0.492-1.291,0-1.783l0,0c0.491-0.491,1.29-0.491,1.783,0L148.089,57.703z"/>
<path display="none" fill="#C9643A" d="M178.793,60.766c-0.491,0.491-1.289,0.491-1.781,0l0,0c-0.493-0.493-0.493-1.292,0-1.783
	l6.307-6.308c0.492-0.492,1.292-0.492,1.782,0l0,0c0.492,0.492,0.492,1.291,0,1.782L178.793,60.766z"/>
<path display="none" fill="#C9643A" d="M140.313,96.757c-0.491,0.491-1.29,0.491-1.783,0l0,0c-0.491-0.492-0.491-1.29,0-1.782
	l6.308-6.308c0.493-0.492,1.291-0.492,1.783,0l0,0c0.492,0.493,0.492,1.292,0,1.783L140.313,96.757z"/>
<path display="none" fill="#C9643A" d="M184.092,76.173c-0.694,0-1.26-0.564-1.26-1.262l0,0c0-0.695,0.565-1.26,1.26-1.26h8.921
	c0.697,0,1.26,0.564,1.26,1.26l0,0c0,0.697-0.562,1.262-1.26,1.262H184.092z"/>
<path display="none" fill="#C9643A" d="M131.206,76.173c-0.694,0-1.26-0.564-1.26-1.262l0,0c0-0.695,0.565-1.26,1.26-1.26h8.921
	c0.695,0,1.26,0.564,1.26,1.26l0,0c0,0.697-0.564,1.262-1.26,1.262H131.206z"/>
<line display="none" fill="none" stroke="#38454C" stroke-width="2.972" stroke-linecap="round" stroke-miterlimit="10" x1="210.283" y1="76.388" x2="210.283" y2="118.812"/>
<line display="none" fill="none" stroke="#38454C" stroke-width="2.972" stroke-linecap="round" stroke-miterlimit="10" x1="210.283" y1="76.388" x2="217.35" y2="87.33"/>
<line display="none" fill="none" stroke="#38454C" stroke-width="2.972" stroke-linecap="round" stroke-miterlimit="10" x1="210.283" y1="76.388" x2="203.041" y2="87.598"/>
<line display="none" fill="none" stroke="#38454C" stroke-width="2.972" stroke-linecap="round" stroke-miterlimit="10" x1="210.283" y1="90.703" x2="216.477" y2="100.294"/>
<line display="none" fill="none" stroke="#38454C" stroke-width="2.972" stroke-linecap="round" stroke-miterlimit="10" x1="210.283" y1="91.224" x2="204.188" y2="100.66"/>
<line display="none" fill="none" stroke="#38454C" stroke-width="2.972" stroke-linecap="round" stroke-miterlimit="10" x1="194.884" y1="89.644" x2="194.884" y2="122.456"/>
<line display="none" fill="none" stroke="#38454C" stroke-width="2.972" stroke-linecap="round" stroke-miterlimit="10" x1="194.884" y1="89.644" x2="200.351" y2="98.107"/>
<line display="none" fill="none" stroke="#38454C" stroke-width="2.972" stroke-linecap="round" stroke-miterlimit="10" x1="194.884" y1="89.644" x2="189.284" y2="98.313"/>
<line display="none" fill="none" stroke="#38454C" stroke-width="2.972" stroke-linecap="round" stroke-miterlimit="10" x1="194.884" y1="100.716" x2="199.674" y2="108.133"/>
<line display="none" fill="none" stroke="#38454C" stroke-width="2.972" stroke-linecap="round" stroke-miterlimit="10" x1="194.884" y1="101.119" x2="190.169" y2="108.416"/>
<circle display="none" fill="none" stroke="#38454C" stroke-width="4.1151" stroke-miterlimit="10" cx="162.208" cy="96.734" r="61.83"/>
<rect x="52.782" y="219.527" display="none" fill="none" width="227.42" height="32.225"/>
<text transform="matrix(1 0 0 1 107.104 237.6006)" display="none" fill="#E3CCAF" font-family="'AboveDEMO-Regular'" font-size="27.4247" letter-spacing="8">Space</text>
<rect x="52.782" y="178.605" display="none" fill="none" width="227.42" height="47.596"/>
<text transform="matrix(1 0 0 1 74.9224 207.9912)" display="none"><tspan x="0" y="0" display="inline" fill="#E3CCAF" font-family="'AboveDEMO-Regular'" font-size="44.5923" letter-spacing="2">Sunse</tspan><tspan x="152.059" y="0" display="inline" fill="#E3CCAF" font-family="'AboveDEMO-Regular'" font-size="44.5923" letter-spacing="4">t</tspan></text>
<path display="none" fill="#D0C6BA" d="M207.965,141.355c0,0,3.161-2.749,9.593-13.165c6.43-10.415,9.178,2.722,9.178,2.722
	L224.841,146l-14.54-3.079L207.965,141.355z"/>
<path display="none" fill="#D0C6BA" d="M108.309,131.78c0,0,9.497,15.206,24.584,22.028c15.089,6.824,1.747,1.76,1.747,1.76
	l-42.16-9.217l-3.663-24.251l9.191-0.573l5.84,6.67L108.309,131.78z"/>
<rect x="355.392" y="28.907" display="none" fill="#D0C6BA" width="227.421" height="138.267"/>
<rect x="355.392" y="167.174" display="none" fill="#38454C" width="227.421" height="88.064"/>
<path display="none" fill="#38454C" d="M510.164,52.275c-11.592-11.592-27.006-17.977-43.4-17.977
	c-16.394,0-31.806,6.385-43.399,17.977c-11.592,11.593-17.977,27.005-17.977,43.399c0,4.556,0.496,9.036,1.456,13.38
	c1.6,7.227,4.496,14.073,8.568,20.263c2.287,3.477,4.943,6.745,7.952,9.755c11.594,11.592,27.006,17.977,43.399,17.977
	c16.395,0,31.809-6.385,43.4-17.977c4.72-4.719,8.377-9.68,11.291-15.475l0.2-0.395c0.519-1.034,0.843-1.711,1.302-2.771
	l0.162-0.372c3.29-7.597,5.022-15.858,5.022-24.385C528.142,79.28,521.756,63.868,510.164,52.275z M520.779,118.847
	c-4.706-2.089-10.009-3.271-15.11-3.271c-9.595,0-18.761,3.499-28.464,7.203c-8.11,3.097-16.496,6.298-25.396,7.439
	c-1.369,0.176-2.74,0.266-4.077,0.266c-10.789,0-20.079-5.941-23.119-14.784c-2.837-8.252,0.521-17.118,8.98-23.713l2.998-2.338
	l-3.728-0.743c-2.7-0.536-5.241-0.81-7.551-0.81c-4.967,0-9.041,1.246-12.11,3.702c-2.05,1.643-3.619,3.798-4.692,6.428
	c-0.037-0.846-0.059-1.696-0.059-2.551c0-32.153,26.157-58.313,58.312-58.313c32.153,0,58.313,26.16,58.313,58.313
	C525.077,103.844,523.824,111.781,520.779,118.847z"/>
<path display="none" fill="#E3CCAF" d="M433.108,88.955l-0.244-0.05c-2.7-0.536-5.241-0.81-7.551-0.81
	c-4.967,0-9.041,1.246-12.11,3.702c-2.05,1.643-3.619,3.798-4.692,6.428c-0.037-0.846-0.059-1.696-0.059-2.551
	c0-32.153,26.157-58.313,58.312-58.313c32.153,0,58.313,26.16,58.313,58.313c0,8.169-1.253,16.106-4.298,23.172
	c-4.706-2.089-10.009-3.271-15.11-3.271c-9.595,0-18.761,3.499-28.464,7.203c-8.11,3.097-16.496,6.298-25.396,7.439
	c-1.369,0.176-2.74,0.266-4.077,0.266c-10.789,0-20.079-5.941-23.119-14.784c-2.837-8.252,0.521-17.118,8.98-23.713l0.222-0.175
	C433.815,91.812,437.313,90.113,433.108,88.955z"/>
<path display="none" fill="#38454C" d="M446.134,109.271c-7.159-5.567-14.753-7.043-23.196,2.441l0,0
	c-2.734,11.738,5.977,23.727,18.67,21.364c-6.329,1.178-10.387-20.814,4.045-21.691
	C445.652,111.386,449.101,111.577,446.134,109.271z"/>
<path display="none" fill="none" stroke="#E3CCAF" stroke-width="2.2862" stroke-miterlimit="10" d="M424.856,106.978
	c-1.633,10.882,11.143,21.318,16.213,21.766"/>
<path display="none" fill="none" stroke="#E3CCAF" stroke-width="2.2974" stroke-miterlimit="10" d="M528.023,130.814
	c-24.976-8.102-31.821-3.477-47.682,2.393c-21.96,8.126-57.907,16.012-78.798-9.032"/>
<path display="none" fill="none" stroke="#E3CCAF" stroke-width="2.2974" stroke-miterlimit="10" d="M528.023,142.975
	c-24.976-8.103-31.821-3.477-47.682,2.392c-21.96,8.126-47.385,11.498-69.104,0.524"/>
<circle display="none" fill="#C9643A" cx="465.913" cy="75.266" r="18.948"/>
<line display="none" fill="none" stroke="#38454C" stroke-width="2.972" stroke-linecap="round" stroke-miterlimit="10" x1="513.925" y1="76.388" x2="513.925" y2="118.812"/>
<line display="none" fill="none" stroke="#38454C" stroke-width="2.972" stroke-linecap="round" stroke-miterlimit="10" x1="513.925" y1="76.388" x2="520.992" y2="87.33"/>
<line display="none" fill="none" stroke="#38454C" stroke-width="2.972" stroke-linecap="round" stroke-miterlimit="10" x1="513.925" y1="76.388" x2="506.683" y2="87.598"/>
<line display="none" fill="none" stroke="#38454C" stroke-width="2.972" stroke-linecap="round" stroke-miterlimit="10" x1="513.925" y1="89.703" x2="520.119" y2="99.294"/>
<line display="none" fill="none" stroke="#38454C" stroke-width="2.972" stroke-linecap="round" stroke-miterlimit="10" x1="513.925" y1="90.224" x2="507.83" y2="99.66"/>
<line display="none" fill="none" stroke="#38454C" stroke-width="2.972" stroke-linecap="round" stroke-miterlimit="10" x1="498.526" y1="89.644" x2="498.526" y2="122.456"/>
<line display="none" fill="none" stroke="#38454C" stroke-width="2.972" stroke-linecap="round" stroke-miterlimit="10" x1="498.526" y1="89.644" x2="503.993" y2="98.107"/>
<line display="none" fill="none" stroke="#38454C" stroke-width="2.972" stroke-linecap="round" stroke-miterlimit="10" x1="498.526" y1="89.644" x2="492.926" y2="98.313"/>
<line display="none" fill="none" stroke="#38454C" stroke-width="2.972" stroke-linecap="round" stroke-miterlimit="10" x1="498.526" y1="100.716" x2="503.316" y2="108.133"/>
<line display="none" fill="none" stroke="#38454C" stroke-width="2.972" stroke-linecap="round" stroke-miterlimit="10" x1="498.526" y1="101.119" x2="493.812" y2="108.416"/>
<circle display="none" fill="none" stroke="#38454C" stroke-width="4.1151" stroke-miterlimit="10" cx="465.85" cy="96.734" r="61.83"/>
<rect x="356.424" y="219.527" display="none" fill="none" width="227.42" height="32.225"/>
<text transform="matrix(1 0 0 1 410.7461 237.6006)" display="none" fill="#E3CCAF" font-family="'AboveDEMO-Regular'" font-size="27.4247" letter-spacing="8">Space</text>
<rect x="356.424" y="178.605" display="none" fill="none" width="227.42" height="47.596"/>
<text transform="matrix(1 0 0 1 378.5645 207.9912)" display="none"><tspan x="0" y="0" display="inline" fill="#E3CCAF" font-family="'AboveDEMO-Regular'" font-size="44.5923" letter-spacing="2">Sunse</tspan><tspan x="152.059" y="0" display="inline" fill="#E3CCAF" font-family="'AboveDEMO-Regular'" font-size="44.5923" letter-spacing="4">t</tspan></text>
<path display="none" fill="#D0C6BA" d="M511.607,141.355c0,0,3.161-2.749,9.593-13.165c6.43-10.415,9.178,2.722,9.178,2.722
	L528.483,146l-14.54-3.079L511.607,141.355z"/>
<path display="none" fill="#D0C6BA" d="M411.951,131.78c0,0,9.497,15.206,24.584,22.028c15.089,6.824,1.747,1.76,1.747,1.76
	l-42.16-9.217l-3.663-24.251l9.191-0.573l5.84,6.67L411.951,131.78z"/>
<path display="none" fill="#D0C6BA" d="M306,0C137.001,0,0,137.001,0,306c0,14.919,1.089,29.582,3.152,43.93h605.696
	C610.911,335.582,612,320.919,612,306C612,137.001,474.999,0,306,0z"/>
<path display="none" fill="#38454C" d="M399.174,94.152c-24.728-24.728-57.609-38.349-92.583-38.349
	c-34.971,0-67.849,13.621-92.581,38.349c-24.728,24.73-38.348,57.608-38.348,92.581c0,9.719,1.058,19.276,3.105,28.543
	c3.413,15.416,9.591,30.022,18.278,43.225c4.879,7.416,10.546,14.39,16.964,20.81c24.732,24.728,57.61,38.348,92.581,38.348
	c34.974,0,67.855-13.62,92.583-38.348c10.07-10.065,17.87-20.649,24.087-33.01l0.429-0.842c1.104-2.207,1.796-3.65,2.775-5.913
	l0.346-0.793c7.021-16.206,10.717-33.829,10.717-52.019C437.527,151.76,423.901,118.882,399.174,94.152z M421.818,236.165
	c-10.036-4.456-21.348-6.978-32.232-6.978c-20.468,0-40.021,7.464-60.72,15.366c-17.302,6.606-35.19,13.435-54.176,15.87
	c-2.92,0.375-5.845,0.566-8.697,0.566c-23.016,0-42.833-12.674-49.318-31.538c-6.052-17.603,1.11-36.517,19.157-50.585l6.396-4.987
	l-7.952-1.585c-5.76-1.144-11.181-1.727-16.108-1.727c-10.595,0-19.287,2.658-25.834,7.898c-4.373,3.503-7.721,8.102-10.01,13.712
	c-0.08-1.804-0.125-3.619-0.125-5.442c0-68.59,55.799-124.396,124.392-124.396c68.592,0,124.398,55.806,124.398,124.396
	C430.989,204.16,428.314,221.093,421.818,236.165z"/>
<path display="none" fill="#E3CCAF" d="M234.796,172.398l-0.521-0.106c-5.76-1.144-11.181-1.727-16.108-1.727
	c-10.595,0-19.287,2.658-25.834,7.898c-4.373,3.503-7.721,8.102-10.01,13.712c-0.08-1.804-0.125-3.619-0.125-5.442
	c0-68.59,55.799-124.396,124.392-124.396c68.592,0,124.398,55.806,124.398,124.396c0,17.427-2.675,34.359-9.171,49.431
	c-10.036-4.456-21.348-6.978-32.232-6.978c-20.468,0-40.021,7.464-60.72,15.366c-17.302,6.606-35.19,13.435-54.176,15.87
	c-2.92,0.375-5.845,0.566-8.697,0.566c-23.016,0-42.833-12.674-49.318-31.538c-6.052-17.603,1.11-36.517,19.157-50.585l0.473-0.373
	C236.305,178.492,243.767,174.87,234.796,172.398z"/>
<path display="none" fill="#38454C" d="M262.583,215.739c-15.272-11.876-31.472-15.024-49.483,5.208l0,0
	c-5.833,25.041,12.749,50.615,39.827,45.575c-13.501,2.512-22.157-44.402,8.628-46.273
	C261.556,220.249,268.912,220.658,262.583,215.739z"/>
<path display="none" fill="none" stroke="#E3CCAF" stroke-width="4.877" stroke-miterlimit="10" d="M217.193,210.846
	c-3.483,23.213,23.77,45.477,34.586,46.431"/>
<path display="none" fill="none" stroke="#E3CCAF" stroke-width="4.9009" stroke-miterlimit="10" d="M437.272,261.696
	c-53.278-17.283-67.881-7.417-101.716,5.104c-46.845,17.333-123.53,34.157-168.095-19.269"/>
<path display="none" fill="none" stroke="#E3CCAF" stroke-width="4.9009" stroke-miterlimit="10" d="M437.272,287.636
	c-53.278-17.285-67.881-7.416-101.716,5.102c-46.845,17.335-101.083,24.528-147.414,1.118"/>
<circle display="none" fill="#C9643A" cx="304.777" cy="143.196" r="40.421"/>
<line display="none" fill="none" stroke="#38454C" stroke-width="6.3401" stroke-linecap="round" stroke-miterlimit="10" x1="407.198" y1="145.59" x2="407.198" y2="236.092"/>
<line display="none" fill="none" stroke="#38454C" stroke-width="6.3401" stroke-linecap="round" stroke-miterlimit="10" x1="407.198" y1="145.59" x2="422.273" y2="168.933"/>
<line display="none" fill="none" stroke="#38454C" stroke-width="6.3401" stroke-linecap="round" stroke-miterlimit="10" x1="407.198" y1="145.59" x2="391.749" y2="169.503"/>
<line display="none" fill="none" stroke="#38454C" stroke-width="6.3401" stroke-linecap="round" stroke-miterlimit="10" x1="407.198" y1="173.995" x2="420.41" y2="194.454"/>
<line display="none" fill="none" stroke="#38454C" stroke-width="6.3401" stroke-linecap="round" stroke-miterlimit="10" x1="407.198" y1="175.105" x2="394.194" y2="195.235"/>
<line display="none" fill="none" stroke="#38454C" stroke-width="6.3401" stroke-linecap="round" stroke-miterlimit="10" x1="374.35" y1="173.868" x2="374.35" y2="243.864"/>
<line display="none" fill="none" stroke="#38454C" stroke-width="6.3401" stroke-linecap="round" stroke-miterlimit="10" x1="374.35" y1="173.868" x2="386.011" y2="191.923"/>
<line display="none" fill="none" stroke="#38454C" stroke-width="6.3401" stroke-linecap="round" stroke-miterlimit="10" x1="374.35" y1="173.868" x2="362.402" y2="192.363"/>
<line display="none" fill="none" stroke="#38454C" stroke-width="6.3401" stroke-linecap="round" stroke-miterlimit="10" x1="374.35" y1="197.487" x2="384.566" y2="213.31"/>
<line display="none" fill="none" stroke="#38454C" stroke-width="6.3401" stroke-linecap="round" stroke-miterlimit="10" x1="374.35" y1="198.348" x2="364.291" y2="213.914"/>
<path display="none" fill="none" stroke="#38454C" stroke-width="8.7786" stroke-miterlimit="10" d="M436.539,188.994
	c0,72.845-59.05,131.898-131.897,131.898c-72.845,0-131.897-59.054-131.897-131.898c0-72.847,59.052-131.896,131.897-131.896
	C377.489,57.098,436.539,116.147,436.539,188.994z"/>
<path display="none" fill="#D0C6BA" d="M402.253,284.182c0,0,6.746-5.865,20.466-28.085c13.717-22.218,19.578,5.806,19.578,5.806
	l-4.041,32.187l-31.02-6.569L402.253,284.182z"/>
<path display="none" fill="#D0C6BA" d="M189.663,263.756c0,0,20.26,32.438,52.444,46.991c32.188,14.558,3.727,3.755,3.727,3.755
	l-89.938-19.662l-7.814-51.733l19.607-1.223l12.458,14.228L189.663,263.756z"/>
<path display="none" fill="#38454C" d="M399.174,94.152c-24.728-24.728-57.609-38.349-92.583-38.349
	c-34.971,0-67.849,13.621-92.581,38.349c-24.728,24.73-38.348,57.608-38.348,92.581c0,9.719,1.058,19.276,3.105,28.543
	c3.413,15.416,9.591,30.022,18.278,43.225c4.879,7.416,10.546,14.39,16.964,20.81c24.732,24.728,57.61,38.348,92.581,38.348
	c34.974,0,67.855-13.62,92.583-38.348c10.07-10.065,17.87-20.649,24.087-33.01l0.429-0.842c1.104-2.207,1.796-3.65,2.775-5.913
	l0.346-0.793c7.021-16.206,10.717-33.829,10.717-52.019C437.527,151.76,423.901,118.882,399.174,94.152z M421.818,236.165
	c-10.036-4.456-21.348-6.978-32.232-6.978c-20.468,0-40.021,7.464-60.72,15.366c-17.302,6.606-35.19,13.435-54.176,15.87
	c-2.92,0.375-5.845,0.566-8.697,0.566c-23.016,0-42.833-12.674-49.318-31.538c-6.052-17.603,1.11-36.517,19.157-50.585l6.396-4.987
	l-7.952-1.585c-5.76-1.144-11.181-1.727-16.108-1.727c-10.595,0-19.287,2.658-25.834,7.898c-4.373,3.503-7.721,8.102-10.01,13.712
	c-0.08-1.804-0.125-3.619-0.125-5.442c0-68.59,55.799-124.396,124.392-124.396c68.592,0,124.398,55.806,124.398,124.396
	C430.989,204.16,428.314,221.093,421.818,236.165z"/>
<path display="none" fill="#E3CCAF" d="M234.796,172.398l-0.521-0.106c-5.76-1.144-11.181-1.727-16.108-1.727
	c-10.595,0-19.287,2.658-25.834,7.898c-4.373,3.503-7.721,8.102-10.01,13.712c-0.08-1.804-0.125-3.619-0.125-5.442
	c0-68.59,55.799-124.396,124.392-124.396c68.592,0,124.398,55.806,124.398,124.396c0,17.427-2.675,34.359-9.171,49.431
	c-10.036-4.456-21.348-6.978-32.232-6.978c-20.468,0-40.021,7.464-60.72,15.366c-17.302,6.606-35.19,13.435-54.176,15.87
	c-2.92,0.375-5.845,0.566-8.697,0.566c-23.016,0-42.833-12.674-49.318-31.538c-6.052-17.603,1.11-36.517,19.157-50.585l0.473-0.373
	C236.305,178.492,243.767,174.87,234.796,172.398z"/>
<path display="none" fill="#38454C" d="M262.583,215.739c-15.272-11.876-31.472-15.024-49.483,5.208l0,0
	c-5.833,25.041,12.749,50.615,39.827,45.575c-13.501,2.512-22.157-44.402,8.628-46.273
	C261.556,220.249,268.912,220.658,262.583,215.739z"/>
<path display="none" fill="none" stroke="#E3CCAF" stroke-width="4.877" stroke-miterlimit="10" d="M217.193,210.846
	c-3.483,23.213,23.77,45.477,34.586,46.431"/>
<path display="none" fill="none" stroke="#E3CCAF" stroke-width="4.9009" stroke-miterlimit="10" d="M418.579,256.339
	c-38.643-9.354-53.522-0.456-83.022,10.461c-34.745,12.856-85.905,25.432-128.2,9.272"/>
<path display="none" fill="none" stroke="#E3CCAF" stroke-width="4.9009" stroke-miterlimit="10" d="M401.774,279.132
	c-26.946-3.324-41.414,4.429-66.218,13.605c-25.928,9.594-54.12,16.082-81.983,15.994"/>
<circle display="none" fill="#C9643A" cx="304.777" cy="143.196" r="40.421"/>
<line display="none" fill="none" stroke="#38454C" stroke-width="6.3401" stroke-linecap="round" stroke-miterlimit="10" x1="407.198" y1="145.59" x2="407.198" y2="236.092"/>
<line display="none" fill="none" stroke="#38454C" stroke-width="6.3401" stroke-linecap="round" stroke-miterlimit="10" x1="407.198" y1="145.59" x2="422.273" y2="168.933"/>
<line display="none" fill="none" stroke="#38454C" stroke-width="6.3401" stroke-linecap="round" stroke-miterlimit="10" x1="407.198" y1="145.59" x2="391.749" y2="169.503"/>
<line display="none" fill="none" stroke="#38454C" stroke-width="6.3401" stroke-linecap="round" stroke-miterlimit="10" x1="407.198" y1="173.995" x2="420.41" y2="194.454"/>
<line display="none" fill="none" stroke="#38454C" stroke-width="6.3401" stroke-linecap="round" stroke-miterlimit="10" x1="407.198" y1="175.105" x2="394.194" y2="195.235"/>
<line display="none" fill="none" stroke="#38454C" stroke-width="6.3401" stroke-linecap="round" stroke-miterlimit="10" x1="374.35" y1="173.868" x2="374.35" y2="243.864"/>
<line display="none" fill="none" stroke="#38454C" stroke-width="6.3401" stroke-linecap="round" stroke-miterlimit="10" x1="374.35" y1="173.868" x2="386.011" y2="191.923"/>
<line display="none" fill="none" stroke="#38454C" stroke-width="6.3401" stroke-linecap="round" stroke-miterlimit="10" x1="374.35" y1="173.868" x2="362.402" y2="192.363"/>
<line display="none" fill="none" stroke="#38454C" stroke-width="6.3401" stroke-linecap="round" stroke-miterlimit="10" x1="374.35" y1="197.487" x2="384.566" y2="213.31"/>
<line display="none" fill="none" stroke="#38454C" stroke-width="6.3401" stroke-linecap="round" stroke-miterlimit="10" x1="374.35" y1="198.348" x2="364.291" y2="213.914"/>
<path display="none" fill="none" stroke="#38454C" stroke-width="8.7786" stroke-miterlimit="10" d="M436.539,188.994
	c0,72.845-59.05,131.898-131.897,131.898c-72.845,0-131.897-59.054-131.897-131.898c0-72.847,59.052-131.896,131.897-131.896
	C377.489,57.098,436.539,116.147,436.539,188.994z"/>
<path fill="#38454C" d="M399.174,94.152c-24.728-24.728-57.609-38.349-92.583-38.349c-34.971,0-67.849,13.621-92.581,38.349
	c-24.728,24.73-38.348,57.608-38.348,92.581c0,9.719,1.058,19.276,3.105,28.543c3.413,15.416,9.591,30.022,18.278,43.225
	c4.879,7.416,10.546,14.39,16.964,20.81c24.732,24.728,57.61,38.348,92.581,38.348c34.974,0,67.855-13.62,92.583-38.348
	c10.07-10.065,17.87-20.649,24.087-33.01l0.429-0.842c1.104-2.207,1.796-3.65,2.775-5.913l0.346-0.793
	c7.021-16.206,10.717-33.829,10.717-52.019C437.527,151.76,423.901,118.882,399.174,94.152z M421.818,236.165
	c-10.036-4.456-21.348-6.978-32.232-6.978c-20.468,0-40.021,7.464-60.72,15.366c-17.302,6.606-35.19,13.435-54.176,15.87
	c-2.92,0.375-5.845,0.566-8.697,0.566c-23.016,0-42.833-12.674-49.318-31.538c-6.052-17.603,1.11-36.517,19.157-50.585l6.396-4.987
	l-7.952-1.585c-5.76-1.144-11.181-1.727-16.108-1.727c-10.595,0-19.287,2.658-25.834,7.898c-4.373,3.503-7.721,8.102-10.01,13.712
	c-0.08-1.804-0.125-3.619-0.125-5.442c0-68.59,55.799-124.396,124.392-124.396c68.592,0,124.398,55.806,124.398,124.396
	C430.989,204.16,428.314,221.093,421.818,236.165z"/>
<path fill="#E3CCAF" d="M234.796,172.398l-0.521-0.106c-5.76-1.144-11.181-1.727-16.108-1.727c-10.595,0-19.287,2.658-25.834,7.898
	c-4.373,3.503-7.721,8.102-10.01,13.712c-0.08-1.804-0.125-3.619-0.125-5.442c0-68.59,55.799-124.396,124.392-124.396
	c68.592,0,124.398,55.806,124.398,124.396c0,17.427-2.675,34.359-9.171,49.431c-10.036-4.456-21.348-6.978-32.232-6.978
	c-20.468,0-40.021,7.464-60.72,15.366c-17.302,6.606-35.19,13.435-54.176,15.87c-2.92,0.375-5.845,0.566-8.697,0.566
	c-23.016,0-42.833-12.674-49.318-31.538c-6.052-17.603,1.11-36.517,19.157-50.585l0.473-0.373
	C236.305,178.492,243.767,174.87,234.796,172.398z"/>
<path fill="#38454C" d="M262.583,215.739c-15.272-11.876-31.472-15.024-49.483,5.208l0,0c-5.833,25.041,12.749,50.615,39.827,45.575
	c-13.501,2.512-22.157-44.402,8.628-46.273C261.556,220.249,268.912,220.658,262.583,215.739z"/>
<path fill="none" stroke="#E3CCAF" stroke-width="4.877" stroke-miterlimit="10" d="M217.193,210.846
	c-3.483,23.213,23.77,45.477,34.586,46.431"/>
<path fill="none" stroke="#E3CCAF" stroke-width="4.9009" stroke-miterlimit="10" d="M418.579,256.339
	c-38.643-9.354-53.522-0.456-83.022,10.461c-34.745,12.856-85.905,25.432-128.2,9.272"/>
<path fill="none" stroke="#E3CCAF" stroke-width="4.9009" stroke-miterlimit="10" d="M401.774,279.132
	c-26.946-3.324-41.414,4.429-66.218,13.605c-25.928,9.594-54.12,16.082-81.983,15.994"/>
<circle fill="#C9643A" cx="304.777" cy="143.196" r="40.421"/>
<line fill="none" stroke="#38454C" stroke-width="6.3401" stroke-linecap="round" stroke-miterlimit="10" x1="407.198" y1="145.59" x2="407.198" y2="236.092"/>
<line fill="none" stroke="#38454C" stroke-width="6.3401" stroke-linecap="round" stroke-miterlimit="10" x1="407.198" y1="145.59" x2="422.273" y2="168.933"/>
<line fill="none" stroke="#38454C" stroke-width="6.3401" stroke-linecap="round" stroke-miterlimit="10" x1="407.198" y1="145.59" x2="391.749" y2="169.503"/>
<line fill="none" stroke="#38454C" stroke-width="6.3401" stroke-linecap="round" stroke-miterlimit="10" x1="407.198" y1="173.995" x2="420.41" y2="194.454"/>
<line fill="none" stroke="#38454C" stroke-width="6.3401" stroke-linecap="round" stroke-miterlimit="10" x1="407.198" y1="175.105" x2="394.194" y2="195.235"/>
<line fill="none" stroke="#38454C" stroke-width="6.3401" stroke-linecap="round" stroke-miterlimit="10" x1="374.35" y1="173.868" x2="374.35" y2="243.864"/>
<line fill="none" stroke="#38454C" stroke-width="6.3401" stroke-linecap="round" stroke-miterlimit="10" x1="374.35" y1="173.868" x2="386.011" y2="191.923"/>
<line fill="none" stroke="#38454C" stroke-width="6.3401" stroke-linecap="round" stroke-miterlimit="10" x1="374.35" y1="173.868" x2="362.402" y2="192.363"/>
<line fill="none" stroke="#38454C" stroke-width="6.3401" stroke-linecap="round" stroke-miterlimit="10" x1="374.35" y1="197.487" x2="384.566" y2="213.31"/>
<line fill="none" stroke="#38454C" stroke-width="6.3401" stroke-linecap="round" stroke-miterlimit="10" x1="374.35" y1="198.348" x2="364.291" y2="213.914"/>
<path fill="none" stroke="#38454C" stroke-width="8.7786" stroke-miterlimit="10" d="M436.539,188.994
	c0,72.845-59.05,131.898-131.897,131.898c-72.845,0-131.897-59.054-131.897-131.898c0-72.847,59.052-131.896,131.897-131.896
	C377.489,57.098,436.539,116.147,436.539,188.994z"/>
</svg>
