<?xml version="1.0" encoding="utf-8"?>
<!-- Generator: Adobe Illustrator 15.0.0, SVG Export Plug-In  -->
<!DOCTYPE svg PUBLIC "-//W3C//DTD SVG 1.1//EN" "http://www.w3.org/Graphics/SVG/1.1/DTD/svg11.dtd" [
	<!ENTITY ns_flows "http://ns.adobe.com/Flows/1.0/">
]>
<svg version="1.1"
	 xmlns="http://www.w3.org/2000/svg" xmlns:xlink="http://www.w3.org/1999/xlink" xmlns:a="http://ns.adobe.com/AdobeSVGViewerExtensions/3.0/"
	 x="0px" y="0px" width="612px" height="271px" viewBox="2 341.408 612 271"
	 overflow="visible" enable-background="new 2 341.408 612 271" xml:space="preserve">
<defs>
</defs>
<path display="none" fill="#F1F2F2" d="M523.227,347.803c-15.217-15.218-35.45-23.599-56.971-23.599
	c-21.52,0-41.752,8.381-56.97,23.599c-15.217,15.217-23.598,35.449-23.598,56.969c0,5.981,0.65,11.862,1.912,17.564
	c2.099,9.486,5.9,18.475,11.246,26.6c3.003,4.562,6.488,8.854,10.439,12.805c15.218,15.217,35.45,23.598,56.97,23.598
	c21.521,0,41.754-8.381,56.971-23.598c6.196-6.196,10.996-12.707,14.821-20.314l0.263-0.518c0.682-1.357,1.107-2.245,1.709-3.637
	l0.213-0.489c4.318-9.973,6.592-20.817,6.592-32.011C546.824,383.252,538.443,363.02,523.227,347.803z M537.16,435.188
	c-6.176-2.74-13.137-4.294-19.834-4.294c-12.596,0-24.627,4.594-37.364,9.457c-10.646,4.064-21.654,8.267-33.337,9.766
	c-1.796,0.23-3.596,0.348-5.353,0.348c-14.162,0-26.357-7.799-30.348-19.406c-3.725-10.832,0.684-22.471,11.789-31.129l3.936-3.068
	l-4.894-0.975c-3.544-0.705-6.88-1.062-9.911-1.062c-6.521,0-11.869,1.635-15.896,4.859c-2.691,2.156-4.752,4.985-6.16,8.438
	c-0.049-1.11-0.078-2.227-0.078-3.35c0-42.208,34.338-76.547,76.546-76.547s76.547,34.339,76.547,76.547
	C542.803,415.496,541.16,425.915,537.16,435.188z"/>
<path display="none" fill="#CFE9DB" d="M422.077,395.951l-0.321-0.064c-3.544-0.705-6.88-1.062-9.911-1.062
	c-6.521,0-11.869,1.635-15.896,4.859c-2.691,2.156-4.752,4.985-6.16,8.438c-0.049-1.11-0.078-2.227-0.078-3.35
	c0-42.208,34.338-76.547,76.546-76.547s76.547,34.339,76.547,76.547c0,10.725-1.643,21.144-5.643,30.417
	c-6.176-2.74-13.137-4.294-19.834-4.294c-12.596,0-24.627,4.594-37.364,9.457c-10.646,4.064-21.654,8.267-33.337,9.766
	c-1.796,0.23-3.596,0.348-5.353,0.348c-14.162,0-26.357-7.799-30.348-19.406c-3.725-10.832,0.684-22.471,11.789-31.129l0.292-0.229
	C423.006,399.701,427.597,397.473,422.077,395.951z"/>
<path display="none" fill="#F1F2F2" d="M439.175,422.62c-9.396-7.308-19.365-9.244-30.449,3.206l0,0
	c-3.59,15.408,7.845,31.145,24.508,28.045c-8.309,1.545-13.635-27.323,5.311-28.475C438.544,425.396,443.069,425.648,439.175,422.62
	z"/>
<path display="none" fill="none" stroke="#CFE9DB" stroke-width="3" stroke-miterlimit="10" d="M411.245,419.608
	c-2.143,14.286,14.625,27.985,21.283,28.571"/>
<path display="none" fill="none" stroke="#CFE9DB" stroke-width="3" stroke-miterlimit="10" d="M546.671,450.899
	c-32.786-10.635-41.771-4.563-62.592,3.141c-28.826,10.667-76.014,21.019-103.438-11.855"/>
<path display="none" fill="none" stroke="#CFE9DB" stroke-width="3" stroke-miterlimit="10" d="M546.671,466.861
	c-32.786-10.635-41.771-4.563-62.592,3.14c-28.826,10.667-62.201,15.093-90.711,0.689"/>
<circle display="none" fill="none" stroke="#F1F2F2" stroke-width="4.5678" stroke-miterlimit="10" cx="464.667" cy="377.51" r="20.779"/>
<path display="none" fill="#F1F2F2" d="M466.499,348.627c0,0.912-0.742,1.653-1.655,1.653l0,0c-0.913,0-1.654-0.741-1.654-1.653
	v-11.71c0-0.914,0.741-1.654,1.654-1.654l0,0c0.913,0,1.655,0.74,1.655,1.654V348.627z"/>
<path display="none" fill="#F1F2F2" d="M466.499,417.955c0,0.913-0.742,1.653-1.655,1.653l0,0c-0.913,0-1.654-0.74-1.654-1.653
	v-11.709c0-0.914,0.741-1.655,1.654-1.655l0,0c0.913,0,1.655,0.741,1.655,1.655V417.955z"/>
<path display="none" fill="#F1F2F2" d="M494.767,404.711c0.646,0.646,0.646,1.694,0,2.34l0,0c-0.646,0.646-1.693,0.646-2.339,0
	l-8.28-8.279c-0.646-0.645-0.646-1.693,0-2.34l0,0c0.646-0.646,1.693-0.646,2.34,0L494.767,404.711z"/>
<path display="none" fill="#F1F2F2" d="M446.522,354.928c0.646,0.646,0.646,1.693,0,2.34l0,0c-0.646,0.646-1.693,0.646-2.34,0
	l-8.279-8.279c-0.646-0.646-0.646-1.694,0-2.341l0,0c0.646-0.645,1.693-0.645,2.34,0L446.522,354.928z"/>
<path display="none" fill="#F1F2F2" d="M486.829,358.946c-0.646,0.646-1.693,0.646-2.34,0l0,0c-0.646-0.646-0.646-1.694,0-2.34
	l8.278-8.278c0.646-0.646,1.695-0.647,2.34,0l0,0c0.646,0.645,0.646,1.693,0,2.34L486.829,358.946z"/>
<path display="none" fill="#F1F2F2" d="M436.315,406.193c-0.646,0.646-1.695,0.646-2.341,0l0,0c-0.646-0.646-0.646-1.693,0-2.34
	l8.28-8.279c0.646-0.646,1.693-0.646,2.34,0l0,0c0.646,0.646,0.646,1.694,0,2.34L436.315,406.193z"/>
<path display="none" fill="#F1F2F2" d="M493.785,379.172c-0.913,0-1.654-0.74-1.654-1.654l0,0c0-0.914,0.741-1.654,1.654-1.654
	h11.709c0.914,0,1.654,0.74,1.654,1.654l0,0c0,0.914-0.74,1.654-1.654,1.654H493.785z"/>
<path display="none" fill="#F1F2F2" d="M424.36,379.172c-0.912,0-1.654-0.74-1.654-1.654l0,0c0-0.914,0.742-1.654,1.654-1.654
	h11.709c0.914,0,1.654,0.74,1.654,1.654l0,0c0,0.914-0.74,1.654-1.654,1.654H424.36z"/>
<line display="none" fill="none" stroke="#F1F2F2" stroke-width="3.9014" stroke-linecap="round" stroke-miterlimit="10" x1="528.162" y1="379.455" x2="528.162" y2="435.146"/>
<line display="none" fill="none" stroke="#F1F2F2" stroke-width="3.9014" stroke-linecap="round" stroke-miterlimit="10" x1="528.162" y1="379.455" x2="537.441" y2="393.818"/>
<line display="none" fill="none" stroke="#F1F2F2" stroke-width="3.9014" stroke-linecap="round" stroke-miterlimit="10" x1="528.162" y1="379.455" x2="518.656" y2="394.17"/>
<line display="none" fill="none" stroke="#F1F2F2" stroke-width="3.9014" stroke-linecap="round" stroke-miterlimit="10" x1="528.162" y1="398.246" x2="536.295" y2="410.836"/>
<line display="none" fill="none" stroke="#F1F2F2" stroke-width="3.9014" stroke-linecap="round" stroke-miterlimit="10" x1="528.162" y1="398.93" x2="520.162" y2="411.316"/>
<line display="none" fill="none" stroke="#F1F2F2" stroke-width="3.9014" stroke-linecap="round" stroke-miterlimit="10" x1="507.949" y1="396.855" x2="507.949" y2="439.928"/>
<line display="none" fill="none" stroke="#F1F2F2" stroke-width="3.9014" stroke-linecap="round" stroke-miterlimit="10" x1="507.949" y1="396.855" x2="515.125" y2="407.965"/>
<line display="none" fill="none" stroke="#F1F2F2" stroke-width="3.9014" stroke-linecap="round" stroke-miterlimit="10" x1="507.949" y1="396.855" x2="500.598" y2="408.236"/>
<line display="none" fill="none" stroke="#F1F2F2" stroke-width="3.9014" stroke-linecap="round" stroke-miterlimit="10" x1="507.949" y1="411.389" x2="514.238" y2="421.126"/>
<line display="none" fill="none" stroke="#F1F2F2" stroke-width="3.9014" stroke-linecap="round" stroke-miterlimit="10" x1="507.949" y1="411.918" x2="501.762" y2="421.498"/>
<circle display="none" fill="none" stroke="#F1F2F2" stroke-width="5.4019" stroke-miterlimit="10" cx="465.057" cy="406.163" r="81.163"/>
<path display="none" fill="#39C0C4" d="M210.747,342.731c-15.217-15.217-35.45-23.598-56.971-23.598
	c-21.52,0-41.752,8.381-56.971,23.598c-15.217,15.217-23.597,35.449-23.597,56.97c0,5.981,0.649,11.862,1.911,17.564
	c2.1,9.487,5.9,18.476,11.247,26.6c3.003,4.562,6.487,8.854,10.438,12.806c15.219,15.217,35.451,23.598,56.971,23.598
	c21.521,0,41.754-8.381,56.971-23.598c6.195-6.197,10.996-12.707,14.82-20.316l0.264-0.517c0.682-1.357,1.106-2.245,1.709-3.638
	l0.213-0.488c4.318-9.973,6.591-20.816,6.591-32.011C234.344,378.181,225.964,357.948,210.747,342.731z M224.681,430.118
	c-6.176-2.74-13.137-4.294-19.835-4.294c-12.596,0-24.627,4.594-37.364,9.456c-10.646,4.064-21.654,8.268-33.336,9.767
	c-1.796,0.23-3.596,0.347-5.354,0.347c-14.161,0-26.357-7.799-30.348-19.405c-3.724-10.833,0.684-22.47,11.79-31.13l3.935-3.068
	l-4.893-0.974c-3.545-0.705-6.88-1.063-9.911-1.063c-6.521,0-11.869,1.635-15.896,4.86c-2.692,2.155-4.753,4.985-6.161,8.438
	c-0.049-1.11-0.078-2.227-0.078-3.35c0-42.208,34.339-76.546,76.547-76.546c42.207,0,76.546,34.338,76.546,76.546
	C230.322,410.425,228.681,420.845,224.681,430.118z"/>
<path display="none" fill="#9BD4BA" d="M109.597,390.881l-0.32-0.064c-3.545-0.705-6.88-1.063-9.911-1.063
	c-6.521,0-11.869,1.635-15.896,4.86c-2.692,2.155-4.753,4.985-6.161,8.438c-0.049-1.11-0.078-2.227-0.078-3.35
	c0-42.208,34.339-76.546,76.547-76.546c42.207,0,76.546,34.338,76.546,76.546c0,10.724-1.642,21.144-5.642,30.417
	c-6.176-2.74-13.137-4.294-19.835-4.294c-12.596,0-24.627,4.594-37.364,9.456c-10.646,4.064-21.654,8.268-33.336,9.767
	c-1.796,0.23-3.596,0.347-5.354,0.347c-14.161,0-26.357-7.799-30.348-19.405c-3.724-10.833,0.684-22.47,11.79-31.13l0.292-0.228
	C110.526,394.631,115.116,392.401,109.597,390.881z"/>
<path display="none" fill="#39C0C4" d="M126.694,417.55c-9.396-7.307-19.364-9.244-30.448,3.207l0,0
	c-3.59,15.408,7.845,31.144,24.507,28.044c-8.308,1.546-13.634-27.323,5.311-28.476C126.063,420.325,130.589,420.578,126.694,417.55
	z"/>
<path display="none" fill="none" stroke="#9BD4BA" stroke-width="3.001" stroke-miterlimit="10" d="M98.765,414.538
	c-2.143,14.286,14.625,27.985,21.284,28.572"/>
<path display="none" fill="none" stroke="#9BD4BA" stroke-width="3.0158" stroke-miterlimit="10" d="M234.19,445.829
	c-32.785-10.635-41.771-4.562-62.592,3.141c-28.825,10.667-76.014,21.018-103.437-11.855"/>
<path display="none" fill="none" stroke="#9BD4BA" stroke-width="3.0158" stroke-miterlimit="10" d="M234.19,461.79
	c-32.785-10.635-41.771-4.562-62.592,3.141c-28.825,10.667-62.201,15.092-90.711,0.689"/>
<circle display="none" fill="none" stroke="#39C0C4" stroke-width="4.5678" stroke-miterlimit="10" cx="152.187" cy="372.439" r="20.779"/>
<path display="none" fill="#39C0C4" d="M154.019,343.556c0,0.914-0.742,1.654-1.654,1.654l0,0c-0.914,0-1.654-0.74-1.654-1.654
	v-11.709c0-0.914,0.74-1.654,1.654-1.654l0,0c0.912,0,1.654,0.74,1.654,1.654V343.556z"/>
<path display="none" fill="#39C0C4" d="M154.019,412.884c0,0.914-0.742,1.654-1.654,1.654l0,0c-0.914,0-1.654-0.74-1.654-1.654
	v-11.709c0-0.914,0.74-1.654,1.654-1.654l0,0c0.912,0,1.654,0.74,1.654,1.654V412.884z"/>
<path display="none" fill="#39C0C4" d="M182.286,399.64c0.646,0.646,0.646,1.695,0,2.341l0,0c-0.646,0.646-1.693,0.646-2.338,0
	l-8.281-8.28c-0.646-0.645-0.646-1.692,0-2.338l0,0c0.646-0.647,1.694-0.647,2.341,0L182.286,399.64z"/>
<path display="none" fill="#39C0C4" d="M134.042,349.856c0.646,0.646,0.646,1.694,0,2.34l0,0c-0.646,0.646-1.693,0.646-2.34,0
	l-8.279-8.278c-0.646-0.647-0.646-1.694,0-2.341l0,0c0.646-0.645,1.693-0.645,2.34,0L134.042,349.856z"/>
<path display="none" fill="#39C0C4" d="M174.35,353.876c-0.646,0.646-1.694,0.646-2.341,0l0,0c-0.646-0.646-0.646-1.693,0-2.34
	l8.279-8.279c0.646-0.646,1.694-0.646,2.34,0l0,0c0.646,0.646,0.646,1.694,0,2.34L174.35,353.876z"/>
<path display="none" fill="#39C0C4" d="M123.835,401.123c-0.646,0.646-1.694,0.646-2.34-0.001l0,0c-0.646-0.645-0.646-1.692,0-2.339
	l8.279-8.279c0.646-0.646,1.693-0.646,2.34-0.001l0,0c0.646,0.646,0.646,1.695,0,2.34L123.835,401.123z"/>
<path display="none" fill="#39C0C4" d="M181.305,374.103c-0.913,0-1.653-0.741-1.653-1.654l0,0c0-0.915,0.74-1.656,1.653-1.656
	h11.709c0.914,0,1.655,0.741,1.655,1.656l0,0c0,0.913-0.741,1.654-1.655,1.654H181.305z"/>
<path display="none" fill="#39C0C4" d="M111.881,374.103c-0.913,0-1.654-0.741-1.654-1.654l0,0c0-0.915,0.741-1.656,1.654-1.656
	h11.708c0.914,0,1.655,0.741,1.655,1.656l0,0c0,0.913-0.741,1.654-1.655,1.654H111.881z"/>
<line display="none" fill="none" stroke="#39C0C4" stroke-width="3.9014" stroke-linecap="round" stroke-miterlimit="10" x1="215.682" y1="374.384" x2="215.682" y2="430.075"/>
<line display="none" fill="none" stroke="#39C0C4" stroke-width="3.9014" stroke-linecap="round" stroke-miterlimit="10" x1="215.682" y1="374.384" x2="224.962" y2="388.749"/>
<line display="none" fill="none" stroke="#39C0C4" stroke-width="3.9014" stroke-linecap="round" stroke-miterlimit="10" x1="215.682" y1="374.384" x2="206.176" y2="389.101"/>
<line display="none" fill="none" stroke="#39C0C4" stroke-width="3.9014" stroke-linecap="round" stroke-miterlimit="10" x1="215.682" y1="393.177" x2="223.815" y2="405.766"/>
<line display="none" fill="none" stroke="#39C0C4" stroke-width="3.9014" stroke-linecap="round" stroke-miterlimit="10" x1="215.682" y1="393.86" x2="207.683" y2="406.246"/>
<line display="none" fill="none" stroke="#39C0C4" stroke-width="3.9014" stroke-linecap="round" stroke-miterlimit="10" x1="195.469" y1="391.786" x2="195.469" y2="434.857"/>
<line display="none" fill="none" stroke="#39C0C4" stroke-width="3.9014" stroke-linecap="round" stroke-miterlimit="10" x1="195.469" y1="391.786" x2="202.646" y2="402.895"/>
<line display="none" fill="none" stroke="#39C0C4" stroke-width="3.9014" stroke-linecap="round" stroke-miterlimit="10" x1="195.469" y1="391.786" x2="188.117" y2="403.167"/>
<line display="none" fill="none" stroke="#39C0C4" stroke-width="3.9014" stroke-linecap="round" stroke-miterlimit="10" x1="195.469" y1="406.318" x2="201.759" y2="416.056"/>
<line display="none" fill="none" stroke="#39C0C4" stroke-width="3.9014" stroke-linecap="round" stroke-miterlimit="10" x1="195.469" y1="406.848" x2="189.281" y2="416.427"/>
<circle display="none" fill="none" stroke="#39C0C4" stroke-width="5.4019" stroke-miterlimit="10" cx="152.576" cy="401.093" r="81.163"/>
<rect x="29.644" y="496.779" display="none" fill="none" width="282.202" height="47.697"/>
<text transform="matrix(1 0 0 1 29.644 526.0625)" display="none"><tspan x="0" y="0" display="inline" fill="#39C0C4" font-family="'WaywardSans-Regular'" font-size="36">Sunset</tspan><tspan x="141.838" y="0" display="inline" fill="#CFE9DB" font-family="'WaywardSans-Regular'" font-size="36"> Space</tspan></text>
<path display="none" fill="#FFFFFF" d="M213.436,458.836c0,0,4.269-3.712,12.953-17.776c8.684-14.064,12.395,3.675,12.395,3.675
	l-2.56,20.374l-19.633-4.158L213.436,458.836z"/>
<path display="none" fill="#FFFFFF" d="M81.682,446.164c0,0,13.167,20.917,34,30.25s2.417,2.416,2.417,2.416l-58.167-12.5
	l-5.167-33.416l12.667-0.834l8.083,9.167L81.682,446.164z"/>
<path display="none" fill="#FFFFFF" d="M525.74,463.551c0,0,4.269-3.712,12.953-17.776c8.684-14.064,12.395,3.675,12.395,3.675
	l-2.56,20.374l-19.633-4.158L525.74,463.551z"/>
<path display="none" fill="#FFFFFF" d="M393.986,450.879c0,0,13.167,20.917,34,30.25s2.416,2.416,2.416,2.416l-58.166-12.5
	l-5.167-33.416l12.667-0.834l8.083,9.167L393.986,450.879z"/>
<rect x="329.145" y="496.779" display="none" fill="none" width="282.201" height="47.697"/>
<text transform="matrix(1 0 0 1 329.1445 526.0625)" display="none" fill="#CFE9DB" font-family="'WaywardSans-Regular'" font-size="36">Sunset Space</text>
<path display="none" fill="#F1F2F2" d="M415.725,66.198C384.53,35.002,343.05,17.821,298.933,17.821
	c-44.116,0-85.593,17.182-116.79,48.377c-31.195,31.195-48.376,72.673-48.376,116.788c0,12.262,1.333,24.318,3.919,36.008
	c4.303,19.447,12.097,37.874,23.055,54.529c6.157,9.354,13.302,18.152,21.401,26.25c31.197,31.196,72.674,48.376,116.79,48.376
	c44.117,0,85.598-17.18,116.792-48.376c12.701-12.701,22.542-26.049,30.385-41.645l0.538-1.061c1.396-2.784,2.27-4.604,3.503-7.456
	l0.437-1.003c8.853-20.444,13.514-42.676,13.514-65.623C464.101,138.871,446.919,97.394,415.725,66.198z M444.289,245.343
	c-12.662-5.618-26.933-8.803-40.662-8.803c-25.82,0-50.484,9.417-76.597,19.386c-21.827,8.333-44.392,16.948-68.341,20.02
	c-3.682,0.473-7.373,0.712-10.974,0.712c-29.032,0-54.034-15.987-62.213-39.783c-7.636-22.205,1.401-46.065,24.167-63.814
	l8.068-6.29l-10.032-1.998c-7.266-1.446-14.104-2.178-20.318-2.178c-13.367,0-24.332,3.351-32.588,9.961
	c-5.518,4.42-9.742,10.22-12.628,17.297c-0.101-2.277-0.161-4.565-0.161-6.867c0-86.527,70.393-156.923,156.921-156.923
	s156.924,70.396,156.924,156.923C455.856,204.972,452.487,226.331,444.289,245.343z"/>
<circle display="none" fill="none" stroke="#F1F2F2" stroke-width="11.074" stroke-miterlimit="10" cx="296.474" cy="185.839" r="166.386"/>
<rect x="2" y="529.283" display="none" fill="none" width="612" height="86.717"/>
<text transform="matrix(1 0 0 1 148.1851 577.918)" display="none" fill="#F1F2F2" font-family="'AboveDEMO-Regular'" font-size="73.8011" letter-spacing="22">Space</text>
<rect x="2" y="393.162" display="none" fill="none" width="612" height="128.082"/>
<text transform="matrix(1 0 0 1 56.0029 492.0117)" display="none" fill="#F1F2F2" font-family="'AboveDEMO-Regular'" font-size="150" letter-spacing="7">Sunse</text>
<rect x="2" display="none" fill="#D0C6BA" width="612" height="372.082"/>
<rect x="2" y="372.082" display="none" fill="#38454C" width="612" height="236.986"/>
<path display="none" fill="#38454C" d="M418.5,62.885c-31.194-31.196-72.675-48.377-116.792-48.377
	c-44.116,0-85.593,17.182-116.79,48.377c-31.195,31.195-48.376,72.673-48.376,116.788c0,12.262,1.333,24.318,3.919,36.008
	c4.303,19.447,12.097,37.874,23.055,54.529c6.157,9.354,13.302,18.152,21.401,26.25c31.197,31.196,72.674,48.375,116.79,48.375
	c44.117,0,85.598-17.18,116.792-48.375c12.701-12.701,22.542-26.049,30.385-41.645l0.538-1.061c1.396-2.784,2.27-4.604,3.503-7.456
	l0.437-1.003c8.853-20.444,13.514-42.676,13.514-65.623C466.876,135.558,449.694,94.081,418.5,62.885z M447.064,242.03
	c-12.662-5.618-26.933-8.803-40.662-8.803c-25.82,0-50.484,9.417-76.597,19.386c-21.827,8.333-44.392,16.948-68.341,20.02
	c-3.682,0.473-7.373,0.712-10.974,0.712c-29.032,0-54.034-15.987-62.213-39.783c-7.636-22.205,1.401-46.065,24.167-63.814
	l8.068-6.29l-10.032-1.998c-7.266-1.446-14.104-2.178-20.318-2.178c-13.367,0-24.332,3.351-32.588,9.961
	c-5.518,4.42-9.742,10.22-12.628,17.297c-0.101-2.277-0.161-4.565-0.161-6.867c0-86.527,70.393-156.923,156.921-156.923
	s156.924,70.396,156.924,156.923C458.632,201.659,455.263,223.018,447.064,242.03z"/>
<circle display="none" fill="none" stroke="#38454C" stroke-width="11.074" stroke-miterlimit="10" cx="299.249" cy="182.526" r="166.386"/>
<rect x="4.775" y="512.971" display="none" fill="none" width="612" height="86.717"/>
<text transform="matrix(1 0 0 1 150.9604 561.6055)" display="none" fill="#E3CCAF" font-family="'AboveDEMO-Regular'" font-size="73.8011" letter-spacing="22">Space</text>
<rect x="4.775" y="402.85" display="none" fill="none" width="612" height="128.082"/>
<text transform="matrix(1 0 0 1 64.3584 481.9297)" display="none"><tspan x="0" y="0" display="inline" fill="#E3CCAF" font-family="'AboveDEMO-Regular'" font-size="120" letter-spacing="6">Sunse</tspan><tspan x="409.194" y="0" display="inline" fill="#E3CCAF" font-family="'AboveDEMO-Regular'" font-size="120" letter-spacing="12">t</tspan></text>
<path display="none" fill="#D0C6BA" d="M154.204,276.836c0,0,25.557,40.92,66.159,59.28c40.601,18.365,4.699,4.735,4.699,4.735
	L111.609,316.05l-9.857-65.263l24.732-1.541l15.715,17.95L154.204,276.836z"/>
<rect x="362.582" y="327.793" display="none" fill="#D0C6BA" width="227.421" height="138.267"/>
<rect x="362.582" y="466.06" display="none" fill="#38454C" width="227.421" height="88.064"/>
<path display="none" fill="#38454C" d="M517.354,351.161c-11.592-11.592-27.006-17.977-43.4-17.977
	c-16.394,0-31.806,6.385-43.399,17.977c-11.592,11.593-17.977,27.005-17.977,43.399c0,4.556,0.496,9.036,1.456,13.38
	c1.6,7.227,4.496,14.073,8.568,20.263c2.287,3.477,4.943,6.745,7.952,9.755c11.594,11.592,27.006,17.977,43.399,17.977
	c16.395,0,31.809-6.385,43.4-17.977c4.72-4.719,8.377-9.68,11.291-15.475l0.2-0.395c0.519-1.034,0.843-1.711,1.302-2.771
	l0.162-0.372c3.29-7.597,5.022-15.858,5.022-24.385C535.332,378.166,528.946,362.754,517.354,351.161z M527.97,417.732
	c-4.706-2.089-10.009-3.271-15.11-3.271c-9.595,0-18.761,3.499-28.464,7.203c-8.11,3.097-16.496,6.298-25.396,7.439
	c-1.369,0.176-2.74,0.266-4.077,0.266c-10.789,0-20.079-5.941-23.119-14.784c-2.837-8.252,0.521-17.118,8.98-23.713l2.998-2.338
	l-3.728-0.743c-2.7-0.536-5.241-0.81-7.551-0.81c-4.967,0-9.041,1.246-12.11,3.702c-2.05,1.643-3.619,3.798-4.692,6.428
	c-0.037-0.846-0.059-1.696-0.059-2.551c0-32.153,26.157-58.313,58.312-58.313c32.153,0,58.313,26.16,58.313,58.313
	C532.268,402.729,531.015,410.667,527.97,417.732z"/>
<path display="none" fill="#E3CCAF" d="M440.299,387.841l-0.244-0.05c-2.7-0.536-5.241-0.81-7.551-0.81
	c-4.967,0-9.041,1.246-12.11,3.702c-2.05,1.643-3.619,3.798-4.692,6.428c-0.037-0.846-0.059-1.696-0.059-2.551
	c0-32.153,26.157-58.313,58.312-58.313c32.153,0,58.313,26.16,58.313,58.313c0,8.169-1.253,16.106-4.298,23.172
	c-4.706-2.089-10.009-3.271-15.11-3.271c-9.595,0-18.761,3.499-28.464,7.203c-8.11,3.097-16.496,6.298-25.396,7.439
	c-1.369,0.176-2.74,0.266-4.077,0.266c-10.789,0-20.079-5.941-23.119-14.784c-2.837-8.252,0.521-17.118,8.98-23.713l0.222-0.175
	C441.006,390.697,444.504,388.999,440.299,387.841z"/>
<path display="none" fill="#38454C" d="M453.324,408.157c-7.159-5.567-14.753-7.043-23.196,2.441l0,0
	c-2.734,11.738,5.977,23.727,18.67,21.364c-6.329,1.178-10.387-20.814,4.045-21.691
	C452.843,410.271,456.291,410.463,453.324,408.157z"/>
<path display="none" fill="none" stroke="#E3CCAF" stroke-width="2.2862" stroke-miterlimit="10" d="M432.047,405.863
	c-1.633,10.882,11.143,21.318,16.213,21.766"/>
<path display="none" fill="none" stroke="#E3CCAF" stroke-width="2.2974" stroke-miterlimit="10" d="M535.214,429.7
	c-24.976-8.102-31.821-3.477-47.682,2.393c-21.96,8.126-57.907,16.012-78.798-9.032"/>
<path display="none" fill="none" stroke="#E3CCAF" stroke-width="2.2974" stroke-miterlimit="10" d="M535.214,441.86
	c-24.976-8.103-31.821-3.477-47.682,2.392c-21.96,8.126-47.385,11.498-69.104,0.524"/>
<circle display="none" fill="none" stroke="#C9643A" stroke-width="2.2296" stroke-miterlimit="10" cx="472.744" cy="373.792" r="15.83"/>
<path display="none" fill="#C9643A" d="M474.14,351.789c0,0.694-0.565,1.26-1.261,1.26l0,0c-0.696,0-1.261-0.565-1.261-1.26v-8.921
	c0-0.695,0.564-1.26,1.261-1.26l0,0c0.695,0,1.261,0.564,1.261,1.26V351.789z"/>
<path display="none" fill="#C9643A" d="M474.14,404.604c0,0.695-0.565,1.26-1.261,1.26l0,0c-0.696,0-1.261-0.564-1.261-1.26v-8.921
	c0-0.696,0.564-1.26,1.261-1.26l0,0c0.695,0,1.261,0.563,1.261,1.26V404.604z"/>
<path display="none" fill="#C9643A" d="M495.674,394.514c0.492,0.492,0.492,1.291,0,1.782l0,0c-0.493,0.491-1.29,0.491-1.782,0
	l-6.307-6.307c-0.494-0.491-0.494-1.29,0-1.783l0,0c0.492-0.492,1.289-0.492,1.781,0L495.674,394.514z"/>
<path display="none" fill="#C9643A" d="M458.922,356.589c0.491,0.492,0.491,1.289,0,1.782l0,0c-0.493,0.493-1.291,0.493-1.782,0
	l-6.308-6.307c-0.492-0.493-0.492-1.291,0-1.783l0,0c0.491-0.491,1.29-0.491,1.783,0L458.922,356.589z"/>
<path display="none" fill="#C9643A" d="M489.626,359.651c-0.491,0.491-1.289,0.491-1.781,0l0,0c-0.493-0.493-0.493-1.292,0-1.783
	l6.307-6.308c0.492-0.492,1.292-0.492,1.782,0l0,0c0.492,0.492,0.492,1.291,0,1.782L489.626,359.651z"/>
<path display="none" fill="#C9643A" d="M451.146,395.643c-0.491,0.491-1.29,0.491-1.783,0l0,0c-0.491-0.492-0.491-1.29,0-1.782
	l6.308-6.308c0.493-0.492,1.291-0.492,1.783,0l0,0c0.492,0.493,0.492,1.292,0,1.783L451.146,395.643z"/>
<path display="none" fill="#C9643A" d="M494.925,375.059c-0.694,0-1.26-0.564-1.26-1.262l0,0c0-0.695,0.565-1.26,1.26-1.26h8.921
	c0.697,0,1.26,0.564,1.26,1.26l0,0c0,0.697-0.562,1.262-1.26,1.262H494.925z"/>
<path display="none" fill="#C9643A" d="M442.038,375.059c-0.694,0-1.26-0.564-1.26-1.262l0,0c0-0.695,0.565-1.26,1.26-1.26h8.921
	c0.695,0,1.26,0.564,1.26,1.26l0,0c0,0.697-0.564,1.262-1.26,1.262H442.038z"/>
<line display="none" fill="none" stroke="#38454C" stroke-width="2.972" stroke-linecap="round" stroke-miterlimit="10" x1="521.115" y1="375.273" x2="521.115" y2="417.698"/>
<line display="none" fill="none" stroke="#38454C" stroke-width="2.972" stroke-linecap="round" stroke-miterlimit="10" x1="521.115" y1="375.273" x2="528.183" y2="386.216"/>
<line display="none" fill="none" stroke="#38454C" stroke-width="2.972" stroke-linecap="round" stroke-miterlimit="10" x1="521.115" y1="375.273" x2="513.873" y2="386.483"/>
<line display="none" fill="none" stroke="#38454C" stroke-width="2.972" stroke-linecap="round" stroke-miterlimit="10" x1="521.115" y1="389.589" x2="527.31" y2="399.18"/>
<line display="none" fill="none" stroke="#38454C" stroke-width="2.972" stroke-linecap="round" stroke-miterlimit="10" x1="521.115" y1="390.109" x2="515.021" y2="399.546"/>
<line display="none" fill="none" stroke="#38454C" stroke-width="2.972" stroke-linecap="round" stroke-miterlimit="10" x1="505.717" y1="388.529" x2="505.717" y2="421.342"/>
<line display="none" fill="none" stroke="#38454C" stroke-width="2.972" stroke-linecap="round" stroke-miterlimit="10" x1="505.717" y1="388.529" x2="511.184" y2="396.993"/>
<line display="none" fill="none" stroke="#38454C" stroke-width="2.972" stroke-linecap="round" stroke-miterlimit="10" x1="505.717" y1="388.529" x2="500.116" y2="397.199"/>
<line display="none" fill="none" stroke="#38454C" stroke-width="2.972" stroke-linecap="round" stroke-miterlimit="10" x1="505.717" y1="399.602" x2="510.507" y2="407.019"/>
<line display="none" fill="none" stroke="#38454C" stroke-width="2.972" stroke-linecap="round" stroke-miterlimit="10" x1="505.717" y1="400.005" x2="501.002" y2="407.302"/>
<circle display="none" fill="none" stroke="#38454C" stroke-width="4.1151" stroke-miterlimit="10" cx="473.041" cy="395.62" r="61.83"/>
<rect x="363.614" y="518.413" display="none" fill="none" width="227.42" height="32.225"/>
<text transform="matrix(1 0 0 1 417.9365 536.4863)" display="none" fill="#E3CCAF" font-family="'AboveDEMO-Regular'" font-size="27.4247" letter-spacing="8">Space</text>
<rect x="363.614" y="477.491" display="none" fill="none" width="227.42" height="47.596"/>
<text transform="matrix(1 0 0 1 385.7549 506.877)" display="none"><tspan x="0" y="0" display="inline" fill="#E3CCAF" font-family="'AboveDEMO-Regular'" font-size="44.5923" letter-spacing="2">Sunse</tspan><tspan x="152.059" y="0" display="inline" fill="#E3CCAF" font-family="'AboveDEMO-Regular'" font-size="44.5923" letter-spacing="4">t</tspan></text>
<path display="none" fill="#D0C6BA" d="M518.798,440.241c0,0,3.161-2.749,9.593-13.165c6.43-10.415,9.178,2.722,9.178,2.722
	l-1.895,15.088l-14.54-3.079L518.798,440.241z"/>
<path display="none" fill="#D0C6BA" d="M419.142,430.666c0,0,9.497,15.206,24.584,22.028c15.089,6.824,1.747,1.76,1.747,1.76
	l-42.16-9.217l-3.663-24.251l9.191-0.573l5.84,6.67L419.142,430.666z"/>
<rect x="56.418" y="326.854" display="none" fill="#D0C6BA" width="227.421" height="138.267"/>
<rect x="56.418" y="465.12" display="none" fill="#38454C" width="227.421" height="88.064"/>
<path display="none" fill="#38454C" d="M211.19,350.222c-11.592-11.592-27.006-17.977-43.4-17.977
	c-16.394,0-31.806,6.385-43.399,17.977c-11.592,11.593-17.977,27.005-17.977,43.399c0,4.556,0.496,9.036,1.456,13.38
	c1.6,7.227,4.496,14.073,8.568,20.263c2.287,3.477,4.943,6.745,7.952,9.755c11.594,11.592,27.006,17.977,43.399,17.977
	c16.395,0,31.809-6.385,43.4-17.977c4.72-4.719,8.377-9.68,11.291-15.475l0.2-0.395c0.519-1.034,0.843-1.711,1.302-2.771
	l0.162-0.372c3.29-7.597,5.022-15.858,5.022-24.385C229.168,377.227,222.782,361.814,211.19,350.222z M221.806,416.793
	c-4.706-2.089-10.009-3.271-15.11-3.271c-9.595,0-18.761,3.499-28.464,7.203c-8.11,3.097-16.496,6.298-25.396,7.439
	c-1.369,0.176-2.74,0.266-4.077,0.266c-10.789,0-20.079-5.941-23.119-14.784c-2.837-8.252,0.521-17.118,8.98-23.713l2.998-2.338
	l-3.728-0.743c-2.7-0.536-5.241-0.81-7.551-0.81c-4.967,0-9.041,1.246-12.11,3.702c-2.05,1.643-3.619,3.798-4.692,6.428
	c-0.037-0.846-0.059-1.696-0.059-2.551c0-32.153,26.157-58.313,58.312-58.313c32.153,0,58.313,26.16,58.313,58.313
	C226.104,401.79,224.851,409.728,221.806,416.793z"/>
<path display="none" fill="#E3CCAF" d="M134.135,386.901l-0.244-0.05c-2.7-0.536-5.241-0.81-7.551-0.81
	c-4.967,0-9.041,1.246-12.11,3.702c-2.05,1.643-3.619,3.798-4.692,6.428c-0.037-0.846-0.059-1.696-0.059-2.551
	c0-32.153,26.157-58.313,58.312-58.313c32.153,0,58.313,26.16,58.313,58.313c0,8.169-1.253,16.106-4.298,23.172
	c-4.706-2.089-10.009-3.271-15.11-3.271c-9.595,0-18.761,3.499-28.464,7.203c-8.11,3.097-16.496,6.298-25.396,7.439
	c-1.369,0.176-2.74,0.266-4.077,0.266c-10.789,0-20.079-5.941-23.119-14.784c-2.837-8.252,0.521-17.118,8.98-23.713l0.222-0.175
	C134.842,389.758,138.34,388.06,134.135,386.901z"/>
<path display="none" fill="#38454C" d="M147.16,407.218c-7.159-5.567-14.753-7.043-23.196,2.441l0,0
	c-2.734,11.738,5.977,23.727,18.67,21.364c-6.329,1.178-10.387-20.814,4.045-21.691C146.679,409.332,150.127,409.523,147.16,407.218
	z"/>
<path display="none" fill="none" stroke="#E3CCAF" stroke-width="2.2862" stroke-miterlimit="10" d="M125.883,404.924
	c-1.633,10.882,11.143,21.318,16.213,21.766"/>
<path display="none" fill="none" stroke="#E3CCAF" stroke-width="2.2974" stroke-miterlimit="10" d="M229.05,428.761
	c-24.976-8.102-31.821-3.477-47.682,2.393c-21.96,8.126-57.907,16.012-78.798-9.032"/>
<path display="none" fill="none" stroke="#E3CCAF" stroke-width="2.2974" stroke-miterlimit="10" d="M229.05,440.921
	c-24.976-8.103-31.821-3.477-47.682,2.392c-21.96,8.126-47.385,11.498-69.104,0.524"/>
<circle display="none" fill="#C9643A" cx="166.58" cy="372.853" r="15.83"/>
<path display="none" fill="#C9643A" d="M167.976,350.85c0,0.694-0.565,1.26-1.261,1.26l0,0c-0.696,0-1.261-0.565-1.261-1.26v-8.921
	c0-0.695,0.564-1.26,1.261-1.26l0,0c0.695,0,1.261,0.564,1.261,1.26V350.85z"/>
<path display="none" fill="#C9643A" d="M167.976,403.664c0,0.695-0.565,1.26-1.261,1.26l0,0c-0.696,0-1.261-0.564-1.261-1.26v-8.921
	c0-0.696,0.564-1.26,1.261-1.26l0,0c0.695,0,1.261,0.563,1.261,1.26V403.664z"/>
<path display="none" fill="#C9643A" d="M189.51,393.574c0.492,0.492,0.492,1.291,0,1.782l0,0c-0.493,0.491-1.29,0.491-1.782,0
	l-6.307-6.307c-0.494-0.491-0.494-1.29,0-1.783l0,0c0.492-0.492,1.289-0.492,1.781,0L189.51,393.574z"/>
<path display="none" fill="#C9643A" d="M152.758,355.649c0.491,0.492,0.491,1.289,0,1.782l0,0c-0.493,0.493-1.291,0.493-1.782,0
	l-6.308-6.307c-0.492-0.493-0.492-1.291,0-1.783l0,0c0.491-0.491,1.29-0.491,1.783,0L152.758,355.649z"/>
<path display="none" fill="#C9643A" d="M183.462,358.712c-0.491,0.491-1.289,0.491-1.781,0l0,0c-0.493-0.493-0.493-1.292,0-1.783
	l6.307-6.308c0.492-0.492,1.292-0.492,1.782,0l0,0c0.492,0.492,0.492,1.291,0,1.782L183.462,358.712z"/>
<path display="none" fill="#C9643A" d="M144.981,394.703c-0.491,0.491-1.29,0.491-1.783,0l0,0c-0.491-0.492-0.491-1.29,0-1.782
	l6.308-6.308c0.493-0.492,1.291-0.492,1.783,0l0,0c0.492,0.493,0.492,1.292,0,1.783L144.981,394.703z"/>
<path display="none" fill="#C9643A" d="M188.761,374.119c-0.694,0-1.26-0.564-1.26-1.262l0,0c0-0.695,0.565-1.26,1.26-1.26h8.921
	c0.697,0,1.26,0.564,1.26,1.26l0,0c0,0.697-0.562,1.262-1.26,1.262H188.761z"/>
<path display="none" fill="#C9643A" d="M135.874,374.119c-0.694,0-1.26-0.564-1.26-1.262l0,0c0-0.695,0.565-1.26,1.26-1.26h8.921
	c0.695,0,1.26,0.564,1.26,1.26l0,0c0,0.697-0.564,1.262-1.26,1.262H135.874z"/>
<line display="none" fill="none" stroke="#38454C" stroke-width="2.972" stroke-linecap="round" stroke-miterlimit="10" x1="214.951" y1="374.334" x2="214.951" y2="416.759"/>
<line display="none" fill="none" stroke="#38454C" stroke-width="2.972" stroke-linecap="round" stroke-miterlimit="10" x1="214.951" y1="374.334" x2="222.019" y2="385.276"/>
<line display="none" fill="none" stroke="#38454C" stroke-width="2.972" stroke-linecap="round" stroke-miterlimit="10" x1="214.951" y1="374.334" x2="207.709" y2="385.544"/>
<line display="none" fill="none" stroke="#38454C" stroke-width="2.972" stroke-linecap="round" stroke-miterlimit="10" x1="214.951" y1="388.649" x2="221.146" y2="398.24"/>
<line display="none" fill="none" stroke="#38454C" stroke-width="2.972" stroke-linecap="round" stroke-miterlimit="10" x1="214.951" y1="389.17" x2="208.856" y2="398.606"/>
<line display="none" fill="none" stroke="#38454C" stroke-width="2.972" stroke-linecap="round" stroke-miterlimit="10" x1="199.553" y1="387.59" x2="199.553" y2="420.402"/>
<line display="none" fill="none" stroke="#38454C" stroke-width="2.972" stroke-linecap="round" stroke-miterlimit="10" x1="199.553" y1="387.59" x2="205.02" y2="396.054"/>
<line display="none" fill="none" stroke="#38454C" stroke-width="2.972" stroke-linecap="round" stroke-miterlimit="10" x1="199.553" y1="387.59" x2="193.952" y2="396.26"/>
<line display="none" fill="none" stroke="#38454C" stroke-width="2.972" stroke-linecap="round" stroke-miterlimit="10" x1="199.553" y1="398.662" x2="204.343" y2="406.079"/>
<line display="none" fill="none" stroke="#38454C" stroke-width="2.972" stroke-linecap="round" stroke-miterlimit="10" x1="199.553" y1="399.065" x2="194.838" y2="406.362"/>
<circle display="none" fill="none" stroke="#38454C" stroke-width="4.1151" stroke-miterlimit="10" cx="166.876" cy="394.681" r="61.83"/>
<rect x="57.45" y="517.474" display="none" fill="none" width="227.42" height="32.225"/>
<text transform="matrix(1 0 0 1 111.7725 535.5469)" display="none" fill="#C9643A" font-family="'AboveDEMO-Regular'" font-size="27.4247" letter-spacing="8">Space</text>
<rect x="57.45" y="476.552" display="none" fill="none" width="227.42" height="47.596"/>
<text transform="matrix(1 0 0 1 79.5908 505.9375)" display="none"><tspan x="0" y="0" display="inline" fill="#C9643A" font-family="'AboveDEMO-Regular'" font-size="44.5923" letter-spacing="2">Sunse</tspan><tspan x="152.059" y="0" display="inline" fill="#C9643A" font-family="'AboveDEMO-Regular'" font-size="44.5923" letter-spacing="4">t</tspan></text>
<path display="none" fill="#D0C6BA" d="M212.634,439.302c0,0,3.161-2.749,9.593-13.165c6.43-10.415,9.178,2.722,9.178,2.722
	l-1.895,15.088l-14.54-3.079L212.634,439.302z"/>
<path display="none" fill="#D0C6BA" d="M112.978,429.727c0,0,9.497,15.206,24.584,22.028c15.089,6.824,1.747,1.76,1.747,1.76
	l-42.16-9.217l-3.663-24.251l9.191-0.573l5.84,6.67L112.978,429.727z"/>
<path display="none" fill="#D0C6BA" d="M308,0C139.001,0,2,137.001,2,306c0,14.919,1.089,29.582,3.152,43.93h605.696
	C612.911,335.582,614,320.919,614,306C614,137.001,476.999,0,308,0z"/>
<path display="none" fill="#38454C" d="M606.822,372.083H9.178C39.39,509.312,161.693,612,308,612
	C454.307,612,576.61,509.312,606.822,372.083z"/>
<path display="none" fill="#38454C" d="M606.822,372.083c1.605-7.291,2.951-14.678,4.025-22.153H5.152
	c1.075,7.476,2.42,14.862,4.026,22.153H606.822z"/>
<path display="none" fill="#E3CCAF" d="M226.733,502.327c-0.039,1.989-0.468,3.773-1.287,5.354
	c-0.819,1.579-1.951,2.925-3.394,4.036c-1.443,1.112-3.14,1.96-5.09,2.545c-1.951,0.585-4.076,0.878-6.376,0.878
	c-0.898,0-1.931-0.05-3.101-0.146c-1.17-0.098-2.369-0.244-3.598-0.438s-2.428-0.458-3.598-0.79
	c-1.17-0.331-2.204-0.711-3.101-1.141c0.195-0.429,0.41-0.966,0.644-1.609c0.234-0.643,0.468-1.159,0.702-1.55l0.351,0.117
	c1.989,0.624,3.958,1.15,5.909,1.579c1.95,0.43,3.998,0.644,6.143,0.644c1.326,0,2.73-0.185,4.212-0.556
	c1.482-0.37,2.847-0.945,4.095-1.726c1.248-0.78,2.282-1.774,3.101-2.983c0.819-1.209,1.229-2.672,1.229-4.388
	c0-0.469-0.156-1.18-0.468-2.136c-0.312-0.955-0.936-1.91-1.872-2.867c-0.936-0.955-2.282-1.803-4.037-2.545
	c-1.755-0.74-4.076-1.111-6.962-1.111c-1.17,0-2.467-0.155-3.891-0.468c-1.424-0.312-2.76-0.819-4.007-1.521
	c-1.249-0.702-2.292-1.617-3.13-2.749c-0.839-1.131-1.258-2.516-1.258-4.154v-0.233c0.078-2.691,1.346-4.798,3.803-6.318
	c2.458-1.521,5.811-2.32,10.063-2.399c0.974,0,1.881,0.021,2.72,0.059c0.838,0.04,1.667,0.138,2.486,0.293
	c0.819,0.156,1.647,0.361,2.486,0.614c0.838,0.254,1.726,0.595,2.662,1.023l-0.995,3.159c-1.287-0.662-2.633-1.189-4.037-1.579
	c-1.404-0.39-3.179-0.585-5.324-0.585c-1.483,0-2.848,0.116-4.095,0.351c-1.249,0.234-2.331,0.595-3.247,1.082
	c-0.917,0.488-1.638,1.103-2.165,1.843c-0.527,0.742-0.79,1.601-0.79,2.574c0,0.937,0.283,1.766,0.848,2.486
	c0.565,0.723,1.277,1.337,2.136,1.844c0.857,0.507,1.813,0.887,2.867,1.141c1.053,0.254,2.067,0.38,3.042,0.38h0.526
	c1.755,0,3.569,0.234,5.441,0.702s3.578,1.19,5.119,2.165c1.541,0.975,2.798,2.203,3.773,3.686c0.975,1.482,1.462,3.218,1.462,5.207
	V502.327z"/>
<path display="none" fill="#E3CCAF" d="M255.732,493.26v21.236h-3.394v-38.554h16.908c1.404,0,2.788,0.146,4.154,0.438
	c1.365,0.293,2.583,0.771,3.656,1.434c1.072,0.664,1.94,1.551,2.604,2.662c0.663,1.111,0.995,2.506,0.995,4.183
	c0,1.17-0.186,2.282-0.556,3.335c-0.371,1.053-0.985,1.97-1.843,2.75c-0.858,0.78-2,1.395-3.423,1.843
	c-1.424,0.448-3.208,0.673-5.353,0.673H255.732z M255.732,479.336v10.647h13.689c1.248,0,2.359-0.068,3.335-0.205
	c0.975-0.136,1.793-0.39,2.457-0.761c0.663-0.37,1.17-0.906,1.521-1.608s0.527-1.618,0.527-2.75c0-2.027-0.635-3.422-1.901-4.183
	c-1.268-0.761-3.306-1.141-6.114-1.141H255.732z"/>
<path display="none" fill="#E3CCAF" d="M319.611,493.317h-10.12l-10.297,21.179h-3.978l19.307-38.671l19.013,38.671h-3.803
	L319.611,493.317z M311.07,489.983h7.02l-3.509-7.196L311.07,489.983z"/>
<path display="none" fill="#E3CCAF" d="M384.931,509.874c-2.028,1.668-4.066,2.913-6.114,3.737c-2.047,0.824-4.32,1.235-6.815,1.235
	c-2.73,0-5.295-0.516-7.693-1.55c-2.398-1.033-4.485-2.447-6.26-4.241c-1.775-1.794-3.169-3.881-4.183-6.261
	c-1.015-2.378-1.521-4.894-1.521-7.547c0-2.729,0.507-5.294,1.521-7.692c1.014-2.399,2.407-4.495,4.183-6.29
	c1.774-1.793,3.861-3.207,6.26-4.241c2.398-1.033,4.963-1.55,7.693-1.55c2.066,0,4.037,0.321,5.909,0.965s3.861,1.707,5.967,3.188
	l-2.633,2.048c-1.521-1.092-3.003-1.833-4.446-2.224c-1.443-0.389-3.042-0.585-4.797-0.585c-2.263,0-4.379,0.431-6.348,1.29
	c-1.97,0.859-3.686,2.022-5.148,3.487c-1.462,1.466-2.623,3.204-3.48,5.216c-0.858,2.013-1.287,4.152-1.287,6.417
	c0,2.188,0.429,4.271,1.287,6.243c0.857,1.973,2.019,3.691,3.48,5.157c1.463,1.465,3.179,2.628,5.148,3.487
	c1.969,0.859,4.085,1.289,6.348,1.289c1.014,0,1.96-0.067,2.838-0.205c0.877-0.136,1.726-0.351,2.545-0.644
	c0.818-0.292,1.617-0.691,2.398-1.199c0.779-0.507,1.599-1.111,2.457-1.813L384.931,509.874z"/>
<path display="none" fill="#E3CCAF" d="M408.864,514.496v-38.554h27.263v3.394h-23.869v10.647h20.593v3.393h-20.593v17.727h24.337
	v3.394H408.864z"/>
<path display="none" fill="#E3CCAF" d="M176.499,425.546c-0.064,3.234-0.761,6.136-2.093,8.704
	c-1.332,2.568-3.172,4.756-5.517,6.563c-2.347,1.808-5.105,3.187-8.276,4.138c-3.172,0.951-6.628,1.428-10.369,1.428
	c-1.459,0-3.139-0.081-5.042-0.238c-1.902-0.159-3.853-0.396-5.85-0.714c-1.998-0.316-3.948-0.744-5.851-1.284
	c-1.902-0.538-3.583-1.156-5.042-1.854c0.316-0.697,0.666-1.569,1.046-2.616c0.38-1.046,0.761-1.886,1.142-2.521l0.571,0.19
	c3.234,1.015,6.436,1.871,9.607,2.568c3.17,0.698,6.5,1.046,9.988,1.046c2.155,0,4.438-0.3,6.849-0.903
	c2.41-0.603,4.628-1.537,6.659-2.807c2.029-1.268,3.71-2.885,5.042-4.852c1.332-1.965,1.998-4.343,1.998-7.134
	c0-0.762-0.254-1.918-0.761-3.473c-0.508-1.553-1.522-3.106-3.044-4.661c-1.522-1.553-3.709-2.933-6.563-4.138
	c-2.854-1.204-6.627-1.808-11.32-1.808c-1.903,0-4.012-0.253-6.326-0.761c-2.315-0.507-4.487-1.332-6.516-2.474
	c-2.03-1.142-3.726-2.631-5.089-4.471c-1.364-1.839-2.045-4.091-2.045-6.754v-0.381c0.126-4.376,2.188-7.8,6.183-10.273
	c3.995-2.474,9.449-3.772,16.362-3.9c1.584,0,3.059,0.033,4.423,0.096c1.363,0.063,2.711,0.223,4.042,0.476
	c1.332,0.254,2.679,0.587,4.043,0.999c1.363,0.413,2.806,0.967,4.329,1.664l-1.617,5.137c-2.093-1.077-4.281-1.934-6.564-2.568
	c-2.283-0.633-5.169-0.951-8.656-0.951c-2.411,0-4.63,0.19-6.659,0.571c-2.03,0.38-3.79,0.967-5.279,1.76
	c-1.491,0.793-2.664,1.792-3.52,2.996c-0.856,1.205-1.284,2.602-1.284,4.186c0,1.522,0.459,2.87,1.379,4.043
	c0.919,1.174,2.077,2.173,3.472,2.996c1.395,0.825,2.949,1.443,4.661,1.855c1.712,0.413,3.361,0.618,4.947,0.618h0.856
	c2.854,0,5.803,0.381,8.847,1.142c3.044,0.761,5.818,1.936,8.324,3.52c2.504,1.586,4.55,3.584,6.136,5.993
	c1.584,2.411,2.378,5.231,2.378,8.466V425.546z"/>
<path display="none" fill="#E3CCAF" d="M217.498,445.998c-3.488,0-6.739-0.651-9.75-1.95c-3.013-1.299-5.628-3.044-7.848-5.232
	c-2.221-2.188-3.964-4.756-5.232-7.705c-1.27-2.948-1.902-6.071-1.902-9.369v-39.098h5.517v39.098c0,2.601,0.476,5.041,1.427,7.324
	c0.952,2.283,2.283,4.266,3.996,5.945c1.712,1.681,3.741,3.013,6.088,3.995c2.346,0.984,4.914,1.475,7.705,1.475
	c2.726,0,5.311-0.49,7.753-1.475c2.44-0.982,4.566-2.314,6.374-3.995c1.807-1.68,3.234-3.662,4.281-5.945s1.569-4.724,1.569-7.324
	v-39.098h5.518v39.098c0,3.298-0.682,6.421-2.045,9.369c-1.364,2.949-3.203,5.518-5.517,7.705c-2.316,2.188-5.027,3.934-8.133,5.232
	C224.188,445.347,220.922,445.998,217.498,445.998z"/>
<path display="none" fill="#E3CCAF" d="M312.918,382.644v63.64L268.208,395.2v50.132h-5.517v-64.02l44.709,50.702v-49.371H312.918z"
	/>
<path display="none" fill="#E3CCAF" d="M376.604,425.546c-0.063,3.234-0.761,6.136-2.093,8.704s-3.172,4.756-5.518,6.563
	c-2.347,1.808-5.105,3.187-8.275,4.138c-3.172,0.951-6.628,1.428-10.369,1.428c-1.459,0-3.139-0.081-5.041-0.238
	c-1.903-0.159-3.854-0.396-5.851-0.714c-1.998-0.316-3.948-0.744-5.851-1.284c-1.902-0.538-3.583-1.156-5.041-1.854
	c0.316-0.697,0.665-1.569,1.046-2.616c0.381-1.046,0.761-1.886,1.142-2.521l0.57,0.19c3.234,1.015,6.437,1.871,9.608,2.568
	c3.17,0.698,6.5,1.046,9.988,1.046c2.155,0,4.438-0.3,6.849-0.903c2.409-0.603,4.629-1.537,6.659-2.807
	c2.028-1.268,3.71-2.885,5.041-4.852c1.332-1.965,1.998-4.343,1.998-7.134c0-0.762-0.254-1.918-0.761-3.473
	c-0.509-1.553-1.522-3.106-3.044-4.661c-1.522-1.553-3.71-2.933-6.564-4.138c-2.854-1.204-6.627-1.808-11.319-1.808
	c-1.902,0-4.012-0.253-6.326-0.761c-2.315-0.507-4.487-1.332-6.516-2.474c-2.031-1.142-3.727-2.631-5.09-4.471
	c-1.364-1.839-2.045-4.091-2.045-6.754v-0.381c0.126-4.376,2.188-7.8,6.183-10.273c3.996-2.474,9.449-3.772,16.362-3.9
	c1.584,0,3.059,0.033,4.423,0.096c1.363,0.063,2.712,0.223,4.043,0.476c1.332,0.254,2.679,0.587,4.043,0.999
	c1.363,0.413,2.807,0.967,4.328,1.664l-1.617,5.137c-2.093-1.077-4.28-1.934-6.563-2.568c-2.283-0.633-5.17-0.951-8.656-0.951
	c-2.411,0-4.63,0.19-6.659,0.571c-2.03,0.38-3.79,0.967-5.279,1.76c-1.491,0.793-2.663,1.792-3.52,2.996
	c-0.856,1.205-1.284,2.602-1.284,4.186c0,1.522,0.459,2.87,1.379,4.043c0.919,1.174,2.076,2.173,3.473,2.996
	c1.394,0.825,2.948,1.443,4.661,1.855c1.712,0.413,3.36,0.618,4.946,0.618h0.856c2.854,0,5.803,0.381,8.847,1.142
	s5.817,1.936,8.323,3.52c2.505,1.586,4.55,3.584,6.136,5.993c1.584,2.411,2.378,5.231,2.378,8.466V425.546z"/>
<path display="none" fill="#E3CCAF" d="M392.289,445.332v-62.688h44.329v5.518h-38.812v17.313h33.484v5.517h-33.484v28.823h39.572
	v5.518H392.289z"/>
<path display="none" fill="#E3CCAF" d="M500.247,382.644v5.518h-22.259v57.171h-5.518v-57.171h-22.45v-5.518H500.247z"/>
<rect x="2" y="366.083" display="none" fill="none" width="612" height="86.853"/>
<text transform="matrix(1 0 0 1 111.6836 423.0283)" display="none" fill="#E3CCAF" font-family="'AboveDEMO-Regular'" font-size="94" letter-spacing="4">SUNSET</text>
<rect y="474.784" display="none" fill="none" width="612" height="86.853"/>
<text transform="matrix(1 0 0 1 184.2012 507.7344)" display="none" fill="#E3CCAF" font-family="'AboveDEMO-Regular'" font-size="50" letter-spacing="20">SPACE</text>
<rect x="116.376" y="454.143" display="none" fill="none" stroke="#E3CCAF" stroke-width="2.1777" stroke-miterlimit="10" width="381.819" height="76.221"/>
<path fill="#E3CCAF" d="M162.961,403.477c-0.063,3.195-0.752,6.062-2.068,8.601c-1.316,2.538-3.134,4.7-5.452,6.486
	c-2.319,1.786-5.045,3.148-8.178,4.089c-3.134,0.94-6.549,1.41-10.246,1.41c-1.442,0-3.102-0.079-4.982-0.235
	c-1.88-0.157-3.807-0.392-5.781-0.705c-1.974-0.312-3.901-0.735-5.781-1.269c-1.88-0.532-3.541-1.143-4.982-1.833
	c0.313-0.689,0.658-1.551,1.034-2.585s0.752-1.864,1.128-2.491l0.564,0.188c3.196,1.004,6.36,1.85,9.494,2.538
	c3.133,0.69,6.423,1.034,9.87,1.034c2.13,0,4.386-0.297,6.768-0.893c2.381-0.595,4.574-1.519,6.58-2.773
	c2.005-1.253,3.666-2.851,4.982-4.794c1.316-1.941,1.974-4.292,1.974-7.05c0-0.752-0.251-1.895-0.752-3.431
	c-0.502-1.535-1.504-3.07-3.008-4.606c-1.504-1.535-3.666-2.897-6.486-4.089c-2.82-1.189-6.549-1.786-11.186-1.786
	c-1.88,0-3.964-0.25-6.251-0.752c-2.288-0.501-4.434-1.316-6.439-2.444c-2.006-1.128-3.682-2.6-5.029-4.418
	c-1.349-1.816-2.021-4.042-2.021-6.674v-0.376c0.125-4.324,2.162-7.708,6.11-10.151c3.948-2.444,9.337-3.729,16.168-3.854
	c1.566,0,3.023,0.032,4.371,0.094c1.347,0.063,2.679,0.221,3.995,0.471c1.316,0.251,2.646,0.58,3.995,0.986
	c1.347,0.408,2.773,0.956,4.277,1.646l-1.598,5.076c-2.068-1.065-4.23-1.911-6.486-2.538c-2.256-0.626-5.108-0.94-8.554-0.94
	c-2.382,0-4.575,0.188-6.58,0.564c-2.006,0.376-3.745,0.956-5.217,1.738c-1.473,0.784-2.632,1.771-3.478,2.961
	c-0.846,1.191-1.269,2.57-1.269,4.137c0,1.504,0.454,2.836,1.363,3.995c0.908,1.16,2.052,2.146,3.431,2.961
	c1.378,0.814,2.914,1.426,4.606,1.833c1.692,0.408,3.321,0.61,4.888,0.61h0.846c2.82,0,5.734,0.376,8.742,1.128
	s5.749,1.913,8.225,3.479c2.475,1.567,4.496,3.541,6.063,5.922c1.565,2.382,2.35,5.17,2.35,8.366V403.477z"/>
<path fill="#E3CCAF" d="M205.269,423.687c-3.447,0-6.659-0.644-9.635-1.927c-2.978-1.284-5.562-3.009-7.755-5.171
	c-2.194-2.161-3.917-4.699-5.17-7.613c-1.254-2.914-1.88-6-1.88-9.259v-38.635h5.452v38.635c0,2.57,0.47,4.981,1.41,7.237
	s2.256,4.216,3.948,5.875c1.692,1.661,3.697,2.978,6.016,3.948c2.317,0.973,4.855,1.457,7.614,1.457
	c2.694,0,5.248-0.484,7.661-1.457c2.412-0.971,4.512-2.287,6.298-3.948c1.786-1.659,3.196-3.619,4.23-5.875s1.551-4.667,1.551-7.237
	v-38.635h5.452v38.635c0,3.259-0.674,6.345-2.021,9.259c-1.348,2.914-3.165,5.452-5.452,7.613c-2.289,2.162-4.968,3.887-8.037,5.171
	C211.88,423.043,208.653,423.687,205.269,423.687z"/>
<path fill="#E3CCAF" d="M303.141,361.082v62.887l-44.18-50.479v49.538h-5.452v-63.262l44.18,50.102v-48.786H303.141z"/>
<path fill="#E3CCAF" d="M369.654,403.477c-0.062,3.195-0.752,6.062-2.067,8.601c-1.316,2.538-3.135,4.7-5.452,6.486
	c-2.319,1.786-5.045,3.148-8.178,4.089c-3.135,0.94-6.55,1.41-10.246,1.41c-1.442,0-3.103-0.079-4.982-0.235
	c-1.88-0.157-3.807-0.392-5.781-0.705c-1.974-0.312-3.9-0.735-5.78-1.269c-1.88-0.532-3.541-1.143-4.982-1.833
	c0.312-0.689,0.658-1.551,1.034-2.585s0.752-1.864,1.128-2.491l0.564,0.188c3.195,1.004,6.359,1.85,9.493,2.538
	c3.133,0.69,6.423,1.034,9.87,1.034c2.13,0,4.386-0.297,6.769-0.893c2.381-0.595,4.573-1.519,6.58-2.773
	c2.005-1.253,3.666-2.851,4.981-4.794c1.316-1.941,1.975-4.292,1.975-7.05c0-0.752-0.252-1.895-0.753-3.431
	c-0.502-1.535-1.504-3.07-3.008-4.606c-1.504-1.535-3.666-2.897-6.485-4.089c-2.82-1.189-6.55-1.786-11.187-1.786
	c-1.88,0-3.964-0.25-6.251-0.752c-2.288-0.501-4.434-1.316-6.438-2.444c-2.007-1.128-3.683-2.6-5.029-4.418
	c-1.349-1.816-2.021-4.042-2.021-6.674v-0.376c0.125-4.324,2.162-7.708,6.11-10.151c3.948-2.444,9.337-3.729,16.168-3.854
	c1.565,0,3.022,0.032,4.371,0.094c1.347,0.063,2.679,0.221,3.995,0.471c1.315,0.251,2.646,0.58,3.995,0.986
	c1.347,0.408,2.772,0.956,4.276,1.646l-1.598,5.076c-2.068-1.065-4.229-1.911-6.486-2.538c-2.256-0.626-5.108-0.94-8.554-0.94
	c-2.382,0-4.575,0.188-6.58,0.564c-2.006,0.376-3.745,0.956-5.217,1.738c-1.474,0.784-2.632,1.771-3.479,2.961
	c-0.846,1.191-1.269,2.57-1.269,4.137c0,1.504,0.454,2.836,1.363,3.995c0.907,1.16,2.052,2.146,3.431,2.961
	c1.378,0.814,2.914,1.426,4.606,1.833c1.691,0.408,3.32,0.61,4.888,0.61h0.846c2.82,0,5.734,0.376,8.742,1.128
	s5.749,1.913,8.225,3.479c2.476,1.567,4.496,3.541,6.063,5.922c1.565,2.382,2.35,5.17,2.35,8.366V403.477z"/>
<path fill="#E3CCAF" d="M391.818,423.028v-33.934c-0.126,0-0.533-0.031-1.222-0.095c-0.69-0.062-1.536-0.219-2.538-0.47
	c-1.003-0.25-2.037-0.611-3.103-1.081s-2.037-1.111-2.914-1.927l3.948-3.76c0.626,0.502,1.41,0.925,2.351,1.269
	c0.939,0.346,2.099,0.55,3.478,0.611v-22.561h43.804v5.452h-38.352v17.108h33.088v5.452h-33.088v28.481h39.104v5.452H391.818z"/>
<path fill="#E3CCAF" d="M497.689,361.082v5.452h-21.996v56.494h-5.452v-56.494h-22.184v-5.452H497.689z"/>
<path fill="#E3CCAF" d="M214.509,497.334c-0.034,1.7-0.4,3.226-1.1,4.575c-0.7,1.351-1.667,2.5-2.9,3.45
	c-1.233,0.95-2.684,1.675-4.35,2.175c-1.667,0.5-3.483,0.75-5.45,0.75c-0.768,0-1.65-0.042-2.65-0.125s-2.025-0.208-3.075-0.375
	c-1.05-0.166-2.075-0.392-3.075-0.675s-1.883-0.607-2.65-0.975c0.167-0.367,0.35-0.825,0.55-1.375c0.2-0.551,0.4-0.992,0.6-1.325
	l0.3,0.1c1.7,0.534,3.383,0.983,5.05,1.351c1.667,0.367,3.417,0.55,5.25,0.55c1.133,0,2.333-0.158,3.6-0.476
	c1.266-0.316,2.433-0.808,3.5-1.475c1.066-0.666,1.95-1.517,2.65-2.55s1.05-2.283,1.05-3.75c0-0.4-0.133-1.008-0.4-1.825
	c-0.267-0.816-0.8-1.633-1.6-2.45c-0.8-0.816-1.95-1.541-3.45-2.175c-1.5-0.633-3.484-0.95-5.95-0.95c-1,0-2.108-0.133-3.325-0.399
	c-1.217-0.267-2.359-0.7-3.425-1.301c-1.067-0.6-1.958-1.383-2.675-2.35c-0.717-0.967-1.075-2.15-1.075-3.55v-0.2
	c0.066-2.3,1.15-4.1,3.25-5.4c2.1-1.3,4.966-1.982,8.6-2.05c0.833,0,1.608,0.018,2.325,0.05c0.716,0.034,1.425,0.117,2.125,0.25
	c0.7,0.134,1.408,0.309,2.125,0.525c0.716,0.217,1.475,0.509,2.275,0.875l-0.85,2.7c-1.1-0.566-2.25-1.017-3.45-1.351
	c-1.2-0.332-2.717-0.5-4.55-0.5c-1.267,0-2.434,0.101-3.5,0.301c-1.067,0.199-1.992,0.508-2.775,0.925
	c-0.784,0.417-1.4,0.942-1.85,1.575s-0.675,1.367-0.675,2.199c0,0.801,0.241,1.509,0.725,2.125c0.483,0.617,1.092,1.143,1.825,1.575
	c0.733,0.434,1.55,0.759,2.45,0.976c0.9,0.217,1.766,0.324,2.6,0.324h0.45c1.5,0,3.05,0.2,4.65,0.601
	c1.6,0.399,3.058,1.017,4.375,1.85c1.316,0.834,2.392,1.884,3.225,3.15c0.833,1.267,1.25,2.75,1.25,4.45V497.334z"/>
<path fill="#E3CCAF" d="M247.008,489.584v18.15h-2.9v-18.05c-0.067,0-0.283-0.017-0.65-0.05c-0.367-0.033-0.817-0.117-1.35-0.25
	s-1.083-0.325-1.65-0.575c-0.567-0.25-1.083-0.592-1.55-1.025l2.1-2c0.333,0.268,0.75,0.492,1.25,0.675
	c0.5,0.184,1.116,0.293,1.85,0.325v-12h14.45c1.2,0,2.383,0.125,3.55,0.375c1.167,0.25,2.208,0.659,3.125,1.226
	c0.917,0.566,1.658,1.324,2.225,2.274c0.566,0.95,0.85,2.143,0.85,3.575c0,1-0.159,1.95-0.475,2.85
	c-0.317,0.9-0.842,1.684-1.575,2.351c-0.734,0.667-1.709,1.192-2.925,1.575c-1.217,0.383-2.742,0.574-4.575,0.574H247.008z
	 M247.008,477.685v9.1h11.7c1.066,0,2.017-0.058,2.85-0.175c0.833-0.116,1.533-0.333,2.1-0.65c0.566-0.316,1-0.774,1.3-1.375
	c0.3-0.6,0.45-1.383,0.45-2.35c0-1.732-0.542-2.925-1.625-3.575c-1.083-0.649-2.825-0.975-5.225-0.975H247.008z"/>
<path fill="#E3CCAF" d="M309.393,489.635h-8.65l-8.8,18.1h-3.4l9.1-18.25c-0.567-0.1-1.2-0.275-1.9-0.525
	c-0.7-0.25-1.333-0.657-1.9-1.225l2.1-2c0.333,0.268,0.75,0.492,1.25,0.675c0.5,0.184,1.1,0.292,1.8,0.325l6.05-12.05l16.25,33.05
	h-3.25L309.393,489.635z M302.093,486.784h6l-3-6.149L302.093,486.784z"/>
<path fill="#E3CCAF" d="M372.042,503.784c-1.733,1.425-3.475,2.489-5.225,3.194c-1.75,0.704-3.692,1.056-5.825,1.056
	c-2.334,0-4.525-0.441-6.575-1.325c-2.05-0.883-3.834-2.091-5.35-3.625c-1.518-1.532-2.709-3.316-3.575-5.35
	c-0.867-2.033-1.3-4.183-1.3-6.45c0-2.333,0.433-4.524,1.3-6.575c0.866-2.05,2.058-3.841,3.575-5.375
	c1.516-1.532,3.3-2.741,5.35-3.625c2.05-0.883,4.241-1.324,6.575-1.324c1.767,0,3.45,0.274,5.05,0.824
	c1.6,0.551,3.3,1.459,5.1,2.726l-2.25,1.75c-1.3-0.933-2.566-1.566-3.8-1.9c-1.233-0.333-2.6-0.5-4.1-0.5
	c-1.934,0-3.742,0.368-5.425,1.103c-1.684,0.734-3.15,1.729-4.4,2.98s-2.242,2.738-2.975,4.458c-0.734,1.72-1.101,3.548-1.101,5.484
	c0,1.87,0.366,3.649,1.101,5.335c0.732,1.686,1.725,3.155,2.975,4.408c1.25,1.252,2.717,2.246,4.4,2.98
	c1.683,0.734,3.491,1.102,5.425,1.102c0.866,0,1.675-0.059,2.425-0.176c0.75-0.116,1.475-0.3,2.175-0.55s1.383-0.591,2.05-1.024
	s1.367-0.95,2.101-1.551L372.042,503.784z"/>
<path fill="#E3CCAF" d="M400.492,507.734v-18.05c-0.067,0-0.283-0.017-0.65-0.05s-0.816-0.117-1.35-0.25s-1.084-0.325-1.65-0.575
	s-1.083-0.592-1.55-1.025l2.101-2c0.332,0.268,0.75,0.492,1.25,0.675c0.5,0.184,1.116,0.293,1.85,0.325v-12h23.3v2.9h-20.399v9.1
	h17.6v2.9h-17.6v15.149h20.8v2.9H400.492z"/>
<rect x="116.376" y="454.143" fill="none" stroke="#E3CCAF" stroke-width="2.1777" stroke-miterlimit="10" width="381.819" height="76.221"/>
</svg>
